<svg xmlns="http://www.w3.org/2000/svg" version="1.1" xmlns:xlink="http://www.w3.org/1999/xlink" width="75" height="75" x="0" y="0" viewBox="0 0 512 512" style="enable-background:new 0 0 512 512" xml:space="preserve" class=""><g><path d="M481 332c0-16.5-13.5-30-30-30 16.5 0 30-13.5 30-30s-13.5-30-30-30H328.001C346.3 187.099 346 168.6 346 135c0-19.501-12.599-36.301-30-42.299-4.799-1.8-9.6-2.701-15-2.701h-9c-5.7 0-12.9 4.501-14.401 11.4l-8.399 32.699C256.601 182.999 216.099 242 166 242v210l66.899 22.2c15.3 5.099 31.201 7.8 47.401 7.8H421c16.569 0 30-13.433 30-30 0-16.569-13.431-30-30-30h30c16.5 0 30-13.5 30-30s-13.5-30-30-30c16.5 0 30-13.5 30-30z" style="" fill="#fedbab" data-original="#fedbab" class=""></path><path d="M421 482c16.569 0 30-13.433 30-30 0-16.569-13.431-30-30-30h30c16.5 0 30-13.5 30-30s-13.5-30-30-30c16.5 0 30-13.5 30-30s-13.5-30-30-30c16.5 0 30-13.5 30-30s-13.5-30-30-30H328.001C346.3 187.099 346 168.6 346 135c0-19.501-12.599-36.301-30-42.299-4.799-1.8-9.6-2.701-15-2.701v392h120z" style="" fill="#fec478" data-original="#fec478" class=""></path><path d="M136 512H46c-8.291 0-15-6.709-15-15V227c0-8.291 6.709-15 15-15h90c24.814 0 45 20.186 45 45v210c0 24.814-20.186 45-45 45z" style="" fill="#1689fc" data-original="#1689fc"></path><circle cx="106" cy="437" r="15" style="" fill="#1689fc" data-original="#1689fc"></circle><path d="M316 15v30c0 8.401-6.599 15-15 15s-15-6.599-15-15V15c0-8.401 6.599-15 15-15s15 6.599 15 15zM216.142 86.353l-21.211-21.211c-5.859-5.859-5.859-15.352 0-21.211s15.352-5.859 21.211 0l21.211 21.211c5.859 5.859 5.859 15.352 0 21.211-5.86 5.859-15.352 5.859-21.211 0z" style="" fill="#1689fc" data-original="#1689fc"></path><path d="M364.647 86.353c-5.859-5.859-5.859-15.352 0-21.211l21.211-21.211c5.859-5.859 15.352-5.859 21.211 0s5.859 15.352 0 21.211l-21.211 21.211c-5.859 5.859-15.351 5.859-21.211 0zM316 15v30c0 8.401-6.599 15-15 15V0c8.401 0 15 6.599 15 15z" style="" fill="#136ef1" data-original="#136ef1" class=""></path></g></svg>