<svg xmlns="http://www.w3.org/2000/svg" width="20" height="20" viewBox="0 0 24 24">
  <g id="Group_10" data-name="Group 10" transform="translate(-106 -370)">
    <g id="work_24dp_5F6368" transform="translate(106 370)">
      <path id="Path_51" data-name="Path 51" d="M0,0H24V24H0Z" fill="none"/>
      <path class="first-path" id="Path_52" data-name="Path 52" d="M20,6H16V4a1.993,1.993,0,0,0-2-2H10A1.993,1.993,0,0,0,8,4V6H4A1.985,1.985,0,0,0,2.01,8L2,19a1.993,1.993,0,0,0,2,2H20a1.993,1.993,0,0,0,2-2V8A1.993,1.993,0,0,0,20,6ZM14,6H10V4h4Z"/>
    </g>
    <path class="second-path" id="restart_alt_24dp_5F6368_FILL0_wght400_GRAD0_opsz24" d="M3.007,11.379V10.146a3.68,3.68,0,0,0,2.213-1.28,3.6,3.6,0,0,0,.871-2.39A3.568,3.568,0,0,0,5.011,3.855,3.569,3.569,0,0,0,2.39,2.775H2.344l.678.678-.863.863L0,2.159,2.159,0l.863.864-.678.678H2.39a4.762,4.762,0,0,1,3.5,1.434,4.762,4.762,0,0,1,1.434,3.5A4.787,4.787,0,0,1,6.1,9.737,4.825,4.825,0,0,1,3.007,11.379Z" transform="translate(113.379 383.856) rotate(-74)"/>
    <path class="second-path" id="restart_alt_24dp_5F6368_FILL0_wght400_GRAD0_opsz24-2" data-name="restart_alt_24dp_5F6368_FILL0_wght400_GRAD0_opsz24" d="M3.007,11.379V10.146a3.681,3.681,0,0,0,2.213-1.28,3.6,3.6,0,0,0,.871-2.39A3.569,3.569,0,0,0,5.011,3.855,3.569,3.569,0,0,0,2.39,2.775H2.344l.678.678-.863.863L0,2.159,2.159,0l.863.864-.678.678H2.39a4.762,4.762,0,0,1,3.5,1.434,4.762,4.762,0,0,1,1.434,3.5A4.787,4.787,0,0,1,6.1,9.737,4.825,4.825,0,0,1,3.007,11.379Z" transform="matrix(-0.174, 0.985, -0.985, -0.174, 123.064, 383.321)"/>
  </g>
</svg>
