<svg xmlns="http://www.w3.org/2000/svg" width="20" height="20" viewBox="0 0 24 24">
  <g id="Group_11" data-name="Group 11" transform="translate(-140 -370)">
    <g id="work_24dp_5F6368" transform="translate(140 370)">
      <path id="Path_51" data-name="Path 51" d="M0,0H24V24H0Z" fill="none"/>
      <path class="first-path" id="Path_52" data-name="Path 52" d="M20,6H16V4a1.993,1.993,0,0,0-2-2H10A1.993,1.993,0,0,0,8,4V6H4A1.985,1.985,0,0,0,2.01,8L2,19a1.993,1.993,0,0,0,2,2H20a1.993,1.993,0,0,0,2-2V8A1.993,1.993,0,0,0,20,6ZM14,6H10V4h4Z"/>
    </g>
    <path class="second-path" id="close_24dp_5F6368_FILL0_wght400_GRAD0_opsz24" d="M200.894-751.058l-.894-.894,3.577-3.577L200-759.106l.894-.894,3.577,3.577L208.048-760l.894.894-3.577,3.577,3.577,3.577-.894.894-3.577-3.577Z" transform="translate(-52.471 1139.051)"/>
  </g>
</svg>
