<svg width="100" height="100" viewBox="0 0 79 79" fill="none" xmlns="http://www.w3.org/2000/svg">
<path d="M73.5119 0H5.48812C2.45711 0 0 2.45711 0 5.48812V73.5119C0 76.5429 2.45711 79 5.48812 79H73.5119C76.5429 79 79 76.5429 79 73.5119V5.48812C79 2.45711 76.5429 0 73.5119 0Z" fill="#134EB1"/>
<path d="M60.2378 17.8857L47.1494 34.9356L42.7387 29.1354L51.1832 17.8857H60.2378Z" fill="white"/>
<path d="M34.9635 39.8259L18.7669 61.1141H27.1358L43.7529 39.6519L27.236 18.0155H18.762L34.9044 39.7496L34.9635 39.8259Z" fill="white"/>
<path d="M42.9005 49.9915L51.2464 61.1139H59.9767L47.1503 44.404L42.9005 49.9915Z" fill="white"/>
</svg>
