<?xml version="1.0" encoding="utf-8"?>
<!-- Generator: Adobe Illustrator 24.0.0, SVG Export Plug-In . SVG Version: 6.00 Build 0)  -->
<svg version="1.1" id="Vectors" xmlns="http://www.w3.org/2000/svg" xmlns:xlink="http://www.w3.org/1999/xlink" x="0px" y="0px"
	 viewBox="0 0 6000 4000" style="enable-background:new 0 0 6000 4000;" xml:space="preserve">
<style type="text/css">
	.st0{fill:#B1CCF4;}
	.st1{fill:none;}
	.st2{fill:#1D3856;}
	.st3{fill:#7CA5DF;}
	.st4{fill:#6394CE;}
	.st5{fill:#FBAF7E;}
	.st6{fill:#2F5192;}
	.st7{fill:#FDFEFE;}
	.st8{fill:#CDE1FB;}
	.st9{fill:#2E354B;}
	.st10{fill:#F3974E;}
	.st11{fill:#FADCBF;}
	.st12{fill:#FAAE64;}
	.st13{fill:#B75F25;}
	.st14{fill:#DD7833;}
	.st15{fill:#112638;}
	.st16{fill:#FFFFFF;}
	.st17{fill:#E89160;}
	.st18{fill:#7F332F;}
	.st19{fill:#682625;}
	.st20{fill:#E0B186;}
	.st21{fill:#A64C44;}
	.st22{fill:none;stroke:#2E354B;stroke-width:12.1315;stroke-linecap:round;stroke-linejoin:round;stroke-miterlimit:10;}
</style>
<g>
	<path class="st0" d="M4531,2726.1c-115.9-105.2-268.7-192.7-338.9-318.2c-89.1-159.1-52.9-380.1-255.7-464.3
		c-106-44-240.5-27.7-350.8,10.1s-206.7,95-315.4,135.2c-332.3,122.8-727.1,73-1094.5,32.9c-367.4-40.1-777.9-60-1074,106
		c-312.8,175.3-389.8,512.2-288.2,792.7c74.6,205.9,226.4,388.9,396.6,562.6h3486.3C4846.8,3303.1,4789.7,2961.1,4531,2726.1z"/>
	<g>
		<path class="st1" d="M4940.9,2790c31.3,0,56.7-25.4,56.7-56.7c0-31.3-25.4-56.8-56.7-56.8s-56.7,25.4-56.7,56.8
			C4884.2,2764.6,4909.6,2790,4940.9,2790z"/>
		<path class="st1" d="M1783.4,3080c-6.6-91.7-13.7-192.8-20.1-293.4h-42.8L1783.4,3080z"/>
		<path class="st1" d="M2057.3,2874.6c8.7-27,16.8-50.4,24-70.3c17.4-48.1,29.9-75.8,34.5-85.7c-1-0.5-1.6-0.8-1.6-1.1
			c0.1-0.6,1-0.9,2.5-0.8c0.7-1.5,1.1-2.3,1.1-2.3s-4.6-13.8-12-37.1c-8.8-27.5-21.6-68.3-35.5-114.7
			C2068.9,2654.4,2065.1,2760,2057.3,2874.6z"/>
		<path class="st1" d="M1362.9,2486.5c-4,0-8-0.1-11.9-0.4c-4,0.2-7.9,0.4-11.9,0.4c-49.8,0-95.7-18.2-132.5-48.7l63.8,258.1H1489
			l-31.1-233C1429.2,2478,1396.9,2486.5,1362.9,2486.5z"/>
		<path class="st1" d="M1846.4,1628.7c-14.2,3.9-31,7.6-50.5,10.7c-2.3-4.6-4.6-9.3-6.7-14.1c-14.1,3.3-31.5,7.9-49.5,14.1l79,167.1
			h0v0.1l0,0l23.8,50.4c0.4-2.2,0.7-4.2,1-6.1C1846.4,1830.2,1840.7,1728.8,1846.4,1628.7z"/>
		<path class="st1" d="M1178.9,2410.5l2.9,11.8l-1.3-10C1179.9,2411.7,1179.4,2411.1,1178.9,2410.5z"/>
		<path class="st1" d="M983.3,2995.9c-1.1-0.6-1.8-1.9-1.6-3.2c1.1-7,1.7-14.2,1.7-21.5c0-2.8-0.1-5.5-0.3-8.3c-0.1-1.4,0.7-2.6,2-3
			l38.7-13.6c-1.4-10.2-3.7-20.1-6.8-29.6l-41.3,3.5c-1.3,0.1-2.5-0.6-3-1.8c-3.8-8.9-8.5-17.2-14-25c-0.8-1.1-0.7-2.6,0.1-3.6
			l25.3-32.6c-6.6-7.8-13.8-15.1-21.6-21.6l-32.7,25.2c-1.1,0.8-2.5,0.8-3.6,0.1c-7.8-5.5-16.1-10.2-24.9-14
			c-1.2-0.5-1.9-1.8-1.8-3.1l3.7-41.3c-9.5-3.1-19.5-5.4-29.6-6.9l-13.9,38.7c-0.5,1.3-1.7,2.1-3.1,2c-2.9-0.2-5.7-0.3-8.6-0.3
			c-7.1,0-14.1,0.6-21,1.6c-1.3,0.2-2.6-0.4-3.2-1.6l-19.3-36.9c-9.8,2.5-19.3,5.7-28.3,9.8l9.2,39.8c0.3,1.3-0.3,2.7-1.5,3.4
			c-9.3,5-17.9,11.1-25.8,18.1c-1,0.9-2.4,1-3.5,0.4l-36.2-20.6c-6.7,7.1-12.8,14.8-18.2,22.9l29.2,28.5c1,1,1.2,2.5,0.5,3.7
			c-5.5,9.7-9.8,20.1-12.7,31.1c-0.3,1.3-1.5,2.2-2.8,2.2l-41.4,2.2c-1.6,9.3-2.6,18.8-2.7,28.6l40.1,8.2c1.3,0.3,2.3,1.4,2.4,2.8
			c0.8,12,3.1,23.6,6.8,34.5c0.4,1.3,0,2.6-1.1,3.4l-33.5,24.1c3.8,8.7,8.2,17.1,13.3,25l38.3-14.8c1.3-0.5,2.7-0.1,3.5,1
			c7.3,9.6,15.8,18.1,25.3,25.4c1.1,0.8,1.5,2.3,1,3.5l-15.1,38.2c7.9,5.1,16.2,9.6,24.9,13.5l24.3-33.4c0.8-1.1,2.2-1.5,3.4-1.1
			c11,3.8,22.6,6.2,34.6,7c1.4,0.1,2.5,1.1,2.8,2.4l8,40.1c9.7-0.1,19.2-0.9,28.5-2.5l2.4-41.4c0.1-1.3,1-2.4,2.3-2.8
			c11.1-2.9,21.6-7.2,31.4-12.7c1.2-0.7,2.7-0.4,3.7,0.5l28.3,29.4c8.1-5.4,15.8-11.4,23-18.1l-20.4-36.3c-0.6-1.1-0.5-2.6,0.4-3.5
			c7.1-7.9,13.2-16.6,18.3-25.9c0.7-1.2,2-1.8,3.4-1.5l39.8,9.4c4.1-9,7.4-18.4,9.8-28.2L983.3,2995.9z M848,3039.9
			c-38,0-68.7-30.8-68.7-68.7c0-38,30.7-68.7,68.7-68.7c38,0,68.7,30.8,68.7,68.7C916.7,3009.1,886,3039.9,848,3039.9z"/>
		<path class="st1" d="M848,2908.5c-17.3,0-32.9,7-44.3,18.3c-11.3,11.3-18.3,27-18.3,44.3c0,17.3,7,32.9,18.3,44.3
			c11.3,11.3,27,18.3,44.3,18.3c17.3,0,32.9-7,44.3-18.3c11.3-11.3,18.3-27,18.3-44.3c0-17.3-7-33-18.3-44.3
			C881,2915.5,865.4,2908.5,848,2908.5z"/>
		<polygon class="st2" points="1044.9,3571.8 1078.3,3571.8 1262,2786.7 1213.2,2786.7 		"/>
		<polygon class="st2" points="1315.6,3571.8 1349.1,3571.8 1532.8,2786.7 1483.9,2786.7 		"/>
		<path class="st2" d="M1720.6,2786.7h-48.8l132.2,564.9c-5.1-65.3-12.5-161.6-20.5-271.5L1720.6,2786.7z"/>
		<path class="st3" d="M1180.5,2412.3l1.3,10l67.6,273.5h20.9l-63.8-258.1C1197.2,2430.1,1188.5,2421.5,1180.5,2412.3z"/>
		<path class="st4" d="M1249.4,2695.9l-67.6-273.5l-2.9-11.8c-8.9-10.4-16.9-21.6-24-33.5l42.5,318.9h20.9H1249.4z"/>
		<path class="st3" d="M1541,2695.9h20.9l-64.2-260.1c-5.6,4.8-11.5,9.3-17.6,13.5L1541,2695.9z"/>
		<path class="st4" d="M1458,2462.8l31.1,233h20.9h31.1l-60.9-246.6C1473,2454.2,1465.6,2458.8,1458,2462.8z"/>
		<path class="st4" d="M1180.5,2412.3c8.1,9.2,16.7,17.7,26,25.4c36.8,30.6,82.7,48.7,132.5,48.7c4,0,8-0.1,11.9-0.4
			c-115.7-6.8-207.6-111.6-207.6-240s91.9-233.2,207.6-240c-4-0.2-7.9-0.4-11.9-0.4c-121.3,0-219.5,107.6-219.5,240.4
			c0,48.3,13,93.2,35.4,130.8c7.1,12,15.1,23.2,24,33.5C1179.4,2411.1,1179.9,2411.7,1180.5,2412.3z"/>
		<path class="st3" d="M1143.3,2246.1c0,128.4,91.9,233.2,207.6,240c4,0.2,7.9,0.4,11.9,0.4c34.1,0,66.3-8.5,95.1-23.7
			c7.7-4,15-8.6,22.2-13.5c6.1-4.2,11.9-8.7,17.6-13.5c51.6-44,84.8-112.6,84.8-189.6c0-132.7-98.3-240.4-219.5-240.4
			c-4,0-8,0.1-11.9,0.4C1235.2,2012.9,1143.3,2117.8,1143.3,2246.1z"/>
		<path class="st3" d="M1761.4,2756.6c-1.3-20.3-2.5-40.6-3.7-60.7h-195.7H1541h-31.1H1489h-218.8h-20.9h-31.1h-20.9h-0.4
			c-23.4,0-42.3,18.9-42.3,42.3v6.1c0,4.3,0.6,8.3,1.8,12.2H1761.4z"/>
		<path class="st4" d="M1763.3,2786.7c-0.6-10-1.3-20.1-1.9-30.1h-604.9c5.2,17.4,21.4,30.1,40.5,30.1h16.2h48.8h221.9h48.8h138.9
			h48.8H1763.3z"/>
		<path class="st5" d="M4374.4,3373.7c0.2-0.1,2.9,2.7,7.2,7.7c4.4,5,10.5,12.2,17.6,20.9c4.1,4.9,8.5,10.4,13.1,16.2
			c0.1-1.7,0.2-4.3,0.2-7.6c-0.1-6.4-0.8-15.3-2.8-25.4c-4-20.3-13.4-45.2-32.8-63.5c-19.4-18.2-44.9-26.1-65.4-28.9
			c-10.2-1.4-19.2-1.5-25.6-1.2c-6.4,0.3-10.1,1-10.1,1s0.4,3.8,1.6,9.9c1.1,6.2,2.8,14.6,5.5,24.2c5.5,19.1,14.9,42.4,33.2,59.5
			c18.2,17.2,42.1,25.2,61.4,29.5c9.7,2.1,18.3,3.3,24.5,4c2.9,0.3,5.2,0.6,7,0.7c-6.1-7.9-11.4-14.9-16-20.8
			C4380.2,3383,4373.5,3374,4374.4,3373.7z"/>
		<path class="st6" d="M3847.3,3327.9c0-53.8-35.1-114.3-60-150.4h-472.8c24.8,36.1,60,96.6,60,150.4c0,56.7-39.1,121-64,156.1
			h472.8C3808.3,3448.9,3847.3,3384.7,3847.3,3327.9z"/>
		<path class="st2" d="M3847.3,3327.9c0,56.7-39.1,121-64,156.1h39.9h2.5c24.9-35.1,64-99.4,64-156.1c0-53.8-35.1-114.3-60-150.4
			h-42.3C3812.2,3213.6,3847.3,3274.1,3847.3,3327.9z"/>
		<path class="st2" d="M4688.9,1826.9c43.1,47.8,62.9,111.4,55.9,179.1l-96.3,927.1c-6.8,65.4-38.1,126.8-88,172.8
			c-50.2,46.2-113.4,71.7-178,71.7h52.8c64.6,0,127.9-25.4,178-71.7c50-46,81.2-107.4,88-172.8l96.3-927.1
			c7-67.7-12.8-131.4-55.9-179.1c-41.8-46.4-100.6-72-165.4-72h-52.8C4588.4,1754.9,4647.1,1780.5,4688.9,1826.9z"/>
		<path class="st4" d="M2563.2,2929.8l44.4-427.1h0l51.9-499.9c4.4-42.2,20.4-81.5,44.4-114.7c-16.2-4-29.9-8.2-32.8-9.2
			c-24,36.3-39.1,77.5-43.6,120.5l-96.3,927.1c-4.3,41.1,1.4,80.6,16.1,116c9.4-6,18.7-11.8,27.8-17.3
			C2564.2,2996.4,2559.7,2964,2563.2,2929.8z"/>
		<path class="st4" d="M2801.2,1807.7c-23.2,6.5-58.3,12.3-58.3,12.3c-14.5,6.2-27,12.3-31.4,19.8c-5,8.4,3.3,15,15.1,21.1
			C2748,1838.6,2773.4,1820.4,2801.2,1807.7z"/>
		<path class="st4" d="M3829.7,3177.5h552.7c64.6,0,127.9-25.4,178-71.7c50-46,81.2-107.4,88-172.8l96.3-927.1
			c7-67.7-12.8-131.4-55.9-179.1c-41.8-46.4-100.6-72-165.4-72H2946.5h-52.8c-23.5,0-46.7,3.4-69.3,9.9c0.3,0.3,0.5,0.7,0.7,1.1
			c1.2,3.5,0.5,7.4-2.4,10.9c0,0.3-0.1,0.5-0.3,0.9c-0.5,0.8-1.4,1.8-2.7,2.7c-2.3,1.6-5.5,3.2-9,4.5c8.5,0.2,14.7,6.7,10.2,14.3
			c-0.1,0.2-0.3,0.5-0.6,0.7c23.3-8.3,48-12.8,73.3-12.8h1629.9c116.9,0,201.7,96.5,189.3,215.6l-52,499.9l-3.1,30.2h0l-3.1,30.1
			l-38.1,366.8c-12.4,119.1-117.2,215.6-234.1,215.6H2752.5c-47.5,0-89.7-15.9-122.2-42.8c-1.8-1.5-3.5-3-5.2-4.6
			c-8.3,6.6-16.9,13.3-25.7,20.1c40.7,38.5,94.4,59.5,153.1,59.5h52.8h509.3h472.8H3829.7z"/>
		<path class="st7" d="M3410.2,2015.4h-533.4l-44.3,378.6h533.4L3410.2,2015.4z M3188.8,2319c-1.4,12.3-12.8,22.3-25.4,22.3h-152.9
			c-12.6,0-21.7-10-20.2-22.3l5.9-50c5-42.6,43-77.5,86.2-80.3c2.6-3,4.1-6.3,5-9.7c-17.5-7.2-28.4-24.8-26-45.3
			c3.3-28.2,30.4-50.9,59.5-48.7c24,1.8,41.4,20.7,40.7,44.3c-0.6,22.4-16.4,42-36.9,49.8c0,3.4,0.8,6.8,2.7,9.7
			c42.5,2.8,72.4,37.6,67.4,80.3L3188.8,2319z"/>
		<path class="st7" d="M2801.2,1807.7c-27.8,12.8-53.2,31-74.6,53.2c18.6,9.6,45.8,17.8,41.8,29c-3.9,10.8-37.7,4.8-64.5-1.8
			c-24,33.2-40,72.5-44.4,114.7l-51.9,499.9h844.7l-77.1,642.7h-84.8h-538c-47.5,0-89.7-15.9-122.2-42.8
			c32.5,26.9,74.7,42.8,122.2,42.8h1629.9c116.9,0,221.7-96.5,234.1-215.6l38.1-366.8l3.1-30.1l-1096.9-4.7l3.9-25.4h1096.1
			l52-499.9c12.4-119.1-72.4-215.6-189.3-215.6H2893.6c-25.3,0-50,4.5-73.3,12.8C2817.9,1802.4,2810.5,1805.1,2801.2,1807.7z
			 M4556.9,2109.6h-839.2l3.4-41.7h839.2L4556.9,2109.6z M4492.6,1934.2l14.1-28.6l14.1,28.6l31.6,4.6l-22.8,22.3l5.4,31.4
			l-28.2-14.8l-28.2,14.8l5.4-31.4l-22.8-22.3L4492.6,1934.2z M4306.4,1934.2l14.1-28.6l14.1,28.6l31.6,4.6l-22.8,22.3l5.4,31.4
			l-28.2-14.8l-28.2,14.8l5.4-31.4l-22.8-22.3L4306.4,1934.2z M4120.3,1934.2l14.1-28.6l14.1,28.6l31.6,4.6l-22.8,22.3l5.4,31.4
			l-28.2-14.8l-28.2,14.8l5.4-31.4l-22.8-22.3L4120.3,1934.2z M3934.2,1934.2l14.1-28.6l14.1,28.6l31.6,4.6l-22.8,22.3l5.4,31.4
			l-28.2-14.8l-28.2,14.8l5.4-31.4l-22.8-22.3L3934.2,1934.2z M3748,1934.2l14.1-28.6l14.1,28.6l31.6,4.6L3785,1961l5.4,31.4
			l-28.2-14.8l-28.2,14.8l5.4-31.4l-22.8-22.3L3748,1934.2z M3713.2,2165.3h839.2l-3.4,41.7h-839.2L3713.2,2165.3z M3705.2,2262.6
			h839.2l-3.4,41.7h-839.2L3705.2,2262.6z M3697.2,2359.9h839.2l-3.4,41.7h-839.2L3697.2,2359.9z M3650.2,2688.8
			c2.8-7.4,785.4-7.2,786.4,1.6c1.4,12.8-335.3,11.5-376.1,11.5C3796.7,2701.9,3647.7,2695.3,3650.2,2688.8z M4043.2,2782.7
			c-231.7,0.9-362.6-5.1-360.5-11.7c2.4-7.4,690-9.9,690.9-1.1C4374.8,2782.7,4079,2782.5,4043.2,2782.7z M4363.4,2867.7
			c1.5,12.8-296.1,16.9-332.1,17.5c-233.1,4.2-364.8,0.1-362.8-6.5C3670.8,2871.2,4362.4,2858.9,4363.4,2867.7z M3650.2,2973.7
			c2.6-7.4,744.8-7.2,745.8,1.6c1.3,12.8-318,11.5-356.7,11.5C3789.1,2986.8,3647.8,2980.3,3650.2,2973.7z M3579.9,2667.9
			c13.1,0,23.8,7.4,23.8,16.6c0,9.2-10.6,16.6-23.8,16.6c-13.1,0-23.8-7.4-23.8-16.6C3556.2,2675.3,3566.8,2667.9,3579.9,2667.9z
			 M3575.6,2755.6c13.1,0,23.8,7.4,23.8,16.6c0,9.2-10.6,16.6-23.8,16.6c-13.1,0-23.8-7.4-23.8-16.6
			C3551.8,2763,3562.5,2755.6,3575.6,2755.6z M3575.6,2863c13.1,0,23.8,7.4,23.8,16.6c0,9.2-10.6,16.6-23.8,16.6
			c-13.1,0-23.8-7.4-23.8-16.6C3551.8,2870.4,3562.5,2863,3575.6,2863z M3567,2949.5c13.1,0,23.8,7.4,23.8,16.6
			c0,9.2-10.6,16.6-23.8,16.6c-13.1,0-23.8-7.4-23.8-16.6C3543.2,2956.9,3553.8,2949.5,3567,2949.5z M2870,2000.3h548.7
			c2.2,0,4.2,0.9,5.7,2.5c1.4,1.6,2.1,3.8,1.9,5.9l-46.1,393.8c-0.4,3.8-3.7,6.7-7.5,6.7h-548.7c-2.2,0-4.2-0.9-5.7-2.5
			c-1.4-1.6-2.1-3.8-1.9-5.9l46.1-393.8C2862.9,2003.1,2866.2,2000.3,2870,2000.3z"/>
		<polygon class="st2" points="3823.2,3484 3823.2,3574 4024.3,3574 4024.3,3484 3825.7,3484 		"/>
		<polygon class="st4" points="3823.2,3484 3783.4,3484 3310.6,3484 3098.2,3484 2897.1,3484 2897.1,3574 3098.2,3574 3823.2,3574 
					"/>
		<rect x="4784.3" y="914.9" class="st4" width="23" height="296.7"/>
		<path class="st0" d="M4784.3,1211.6V914.9h-495.8h-23v296.7h23H4784.3z M4300.6,1107.8V954.2h448.4v74.5v143.7h-448.4V1107.8z"/>
		<polygon class="st7" points="4749.1,1028.6 4644.8,1022.6 4574.4,1064.1 4554.3,1075.9 4540.8,1070 4461.9,1035.8 4300.6,1107.8 
			4300.6,1172.3 4749.1,1172.3 		"/>
		<path class="st8" d="M4540.8,1070l13.5,5.9l20.1-11.8l70.4-41.5l104.3,6v-74.5h-448.4v153.6l161.2-71.9L4540.8,1070z
			 M4368.4,1011.7c-10.1,0-18.3-8.2-18.3-18.3c0-10.1,8.2-18.3,18.3-18.3c10.1,0,18.3,8.2,18.3,18.3
			C4386.7,1003.6,4378.5,1011.7,4368.4,1011.7z"/>
		<path class="st7" d="M4368.4,975.2c-10.1,0-18.3,8.2-18.3,18.3c0,10.1,8.2,18.3,18.3,18.3c10.1,0,18.3-8.2,18.3-18.3
			C4386.7,983.4,4378.5,975.2,4368.4,975.2z"/>
		<path class="st3" d="M1019,2910.4l-41.6,3.5c-3.5-7.8-7.6-15.3-12.4-22.3l25.5-32.8c0.9-1.1,0.8-2.7,0-3.8
			c-7.7-9.5-16.4-18.1-25.8-25.9c-1.1-0.9-2.7-0.9-3.8-0.1l-33,25.4c-7-4.8-14.4-9-22.2-12.4l3.7-41.6c0.1-1.4-0.7-2.7-2-3.1
			c-11.4-3.9-23.2-6.7-35.5-8.3c-1.4-0.2-2.8,0.6-3.2,2l-14,38.9c-2.2-0.1-4.4-0.2-6.7-0.2c-6.7,0-13.3,0.5-19.7,1.4l-19.4-37.1
			c-0.6-1.2-2-1.9-3.4-1.5c-11.8,2.8-23.2,6.7-34,11.7c-1.3,0.6-2,2-1.7,3.4l9.3,40.1c-8.3,4.7-16.1,10.1-23.2,16.3l-36.4-20.8
			c-1.2-0.7-2.7-0.5-3.7,0.5c-8.2,8.5-15.5,17.7-21.9,27.6c-0.8,1.2-0.6,2.8,0.4,3.8l29.5,28.7c-4.8,8.9-8.7,18.3-11.6,28.2
			l-41.7,2.2c-1.4,0.1-2.6,1.1-2.8,2.5c-2.1,11.1-3.2,22.6-3.2,34.4v0.1c0,1.4,1,2.7,2.4,3l40.3,8.2c0.9,10.9,3,21.5,6.2,31.6
			l-33.8,24.3c-1.1,0.8-1.6,2.3-1,3.6c4.4,10.6,9.8,20.7,16.1,30.2c0.8,1.2,2.3,1.7,3.6,1.2l38.5-15c6.8,8.7,14.6,16.5,23.2,23.3
			l-15.2,38.5c-0.5,1.3-0.1,2.8,1.1,3.6c9.4,6.3,19.5,11.8,30.1,16.3c1.3,0.6,2.8,0.1,3.6-1l24.5-33.6c10.1,3.3,20.7,5.5,31.7,6.4
			l8,40.4c0.3,1.4,1.4,2.4,2.8,2.4c0.5,0,0.9,0,1.3,0c11.3,0,22.4-1,33.2-3c1.4-0.3,2.4-1.4,2.5-2.8l2.4-41.7
			c10-2.8,19.6-6.7,28.6-11.5l28.5,29.6c1,1,2.6,1.2,3.8,0.4c9.9-6.3,19.2-13.7,27.7-21.7c1-1,1.2-2.5,0.6-3.7l-20.6-36.5
			c6.3-7.2,11.8-15,16.6-23.4l40,9.5c1.4,0.3,2.8-0.4,3.4-1.7c5-10.8,9-22.1,11.8-33.9c0.3-1.3-0.3-2.7-1.5-3.4l-37-19.6
			c1-6.6,1.5-13.4,1.5-20.3c0-2.1-0.1-4.2-0.2-6.3l38.9-13.7c1.3-0.5,2.2-1.8,2-3.2c-1.6-12.2-4.3-24.1-8.1-35.4
			C1021.7,2911.1,1020.4,2910.3,1019,2910.4z M1010.2,3043.5l-39.8-9.4c-1.3-0.3-2.7,0.3-3.4,1.5c-5.1,9.4-11.2,18.1-18.3,25.9
			c-0.9,1-1,2.4-0.4,3.5l20.4,36.3c-7.1,6.6-14.8,12.7-23,18.1l-28.3-29.4c-1-1-2.5-1.2-3.7-0.5c-9.8,5.5-20.3,9.7-31.4,12.7
			c-1.3,0.3-2.2,1.4-2.3,2.8l-2.4,41.4c-9.3,1.6-18.8,2.4-28.5,2.5l-8-40.1c-0.3-1.3-1.4-2.3-2.8-2.4c-12-0.8-23.7-3.2-34.6-7
			c-1.3-0.4-2.7,0-3.4,1.1l-24.3,33.4c-8.7-3.8-17-8.3-24.9-13.5l15.1-38.2c0.5-1.3,0.1-2.7-1-3.5c-9.5-7.3-18-15.9-25.3-25.4
			c-0.8-1.1-2.2-1.5-3.5-1l-38.3,14.8c-5.1-7.9-9.5-16.3-13.3-25l33.5-24.1c1.1-0.8,1.5-2.2,1.1-3.4c-3.7-11-6-22.5-6.8-34.5
			c-0.1-1.4-1.1-2.5-2.4-2.8l-40.1-8.2c0.1-9.7,1-19.3,2.7-28.6l41.4-2.2c1.3-0.1,2.4-1,2.8-2.2c3-11,7.3-21.4,12.7-31.1
			c0.7-1.2,0.5-2.7-0.5-3.7l-29.2-28.5c5.4-8.1,11.5-15.8,18.2-22.9l36.2,20.6c1.1,0.6,2.5,0.5,3.5-0.4c7.8-7,16.5-13,25.8-18.1
			c1.2-0.6,1.8-2,1.5-3.4l-9.2-39.8c9.1-4,18.5-7.3,28.3-9.8l19.3,36.9c0.6,1.2,1.9,1.8,3.2,1.6c6.8-1.1,13.8-1.6,21-1.6
			c2.9,0,5.8,0.1,8.6,0.3c1.4,0.1,2.6-0.7,3.1-2l13.9-38.7c10.2,1.5,20.1,3.8,29.6,6.9l-3.7,41.3c-0.1,1.3,0.6,2.5,1.8,3.1
			c8.8,3.8,17.2,8.5,24.9,14c1.1,0.8,2.6,0.7,3.6-0.1l32.7-25.2c7.8,6.6,15,13.8,21.6,21.6l-25.3,32.6c-0.8,1.1-0.9,2.5-0.1,3.6
			c5.5,7.8,10.2,16.2,14,25c0.5,1.2,1.7,1.9,3,1.8l41.3-3.5c3.1,9.5,5.4,19.4,6.8,29.6l-38.7,13.6c-1.3,0.5-2.1,1.7-2,3
			c0.2,2.8,0.3,5.5,0.3,8.3c0,7.3-0.6,14.5-1.7,21.5c-0.2,1.3,0.4,2.5,1.6,3.2l36.8,19.5C1017.6,3025.1,1014.3,3034.5,1010.2,3043.5
			z"/>
		<path class="st3" d="M848,2902.5c-38,0-68.7,30.8-68.7,68.7c0,37.9,30.7,68.7,68.7,68.7c38,0,68.7-30.8,68.7-68.7
			C916.7,2933.2,886,2902.5,848,2902.5z M892.3,3015.5c-11.3,11.3-27,18.3-44.3,18.3c-17.3,0-32.9-7-44.3-18.3
			c-11.3-11.3-18.3-27-18.3-44.3c0-17.3,7-33,18.3-44.3c11.3-11.3,27-18.3,44.3-18.3c17.3,0,32.9,7,44.3,18.3
			c11.3,11.3,18.3,27,18.3,44.3C910.7,2988.5,903.7,3004.1,892.3,3015.5z"/>
		<path class="st3" d="M4825.5,2702l-37.9,2c-1.8,9.5-2.7,19.2-2.7,29.2v0.1l36.8,7.5c0.7,10.6,2.7,20.8,6,30.5l-30.7,22.1
			c3.8,9,8.4,17.6,13.7,25.7l35.1-13.6c6.4,8.4,13.9,16,22.3,22.5l-13.8,35.1c8,5.4,16.6,10,25.6,13.8l22.3-30.6
			c9.7,3.4,20,5.5,30.6,6.2l7.3,36.8c0.3,0,0.7,0,1,0c9.6,0,19.1-0.9,28.2-2.5l2.2-37.9c9.8-2.6,19.1-6.4,27.7-11.2l26,27
			c8.4-5.4,16.3-11.6,23.5-18.5l-18.7-33.1c6.3-6.9,11.7-14.6,16.2-22.9l36.5,8.6c4.3-9.1,7.6-18.8,10.1-28.8l-33.6-17.8
			c1-6.2,1.5-12.6,1.5-19c0-2.5-0.1-4.9-0.2-7.3l35.5-12.5c-1.3-10.4-3.7-20.5-6.9-30.1l-37.8,3.2c-3.3-7.8-7.5-15.2-12.3-22.1
			l23.2-29.8c-6.6-8-13.9-15.4-21.9-22l-30,23.1c-6.8-4.9-14.2-9-22-12.4l3.4-37.8c-9.7-3.3-19.7-5.7-30.1-7l-12.7,35.4
			c-2.5-0.2-5-0.3-7.6-0.3c-6.3,0-12.5,0.5-18.5,1.4l-17.6-33.7c-10,2.4-19.7,5.7-28.9,10l8.4,36.5c-8.2,4.4-15.9,9.8-22.8,15.9
			l-33.1-18.8c-6.9,7.2-13.2,15.1-18.6,23.5l26.9,26.1C4831.9,2683.1,4828.1,2692.3,4825.5,2702z M4940.9,2676.5
			c31.3,0,56.7,25.4,56.7,56.8c0,31.3-25.4,56.7-56.7,56.7s-56.7-25.4-56.7-56.7C4884.2,2701.9,4909.6,2676.5,4940.9,2676.5z"/>
		<polygon class="st5" points="3733.9,1992.5 3762.1,1977.6 3790.4,1992.5 3785,1961 3807.8,1938.7 3776.3,1934.2 3762.1,1905.6 
			3748,1934.2 3716.5,1938.7 3739.3,1961 		"/>
		<polygon class="st5" points="3920,1992.5 3948.3,1977.6 3976.5,1992.5 3971.1,1961 3994,1938.7 3962.4,1934.2 3948.3,1905.6 
			3934.2,1934.2 3902.6,1938.7 3925.4,1961 		"/>
		<polygon class="st5" points="4106.2,1992.5 4134.4,1977.6 4162.6,1992.5 4157.3,1961 4180.1,1938.7 4148.5,1934.2 4134.4,1905.6 
			4120.3,1934.2 4088.7,1938.7 4111.6,1961 		"/>
		<polygon class="st5" points="4292.3,1992.5 4320.5,1977.6 4348.8,1992.5 4343.4,1961 4366.2,1938.7 4334.7,1934.2 4320.5,1905.6 
			4306.4,1934.2 4274.9,1938.7 4297.7,1961 		"/>
		<polygon class="st0" points="4478.4,1992.5 4506.7,1977.6 4534.9,1992.5 4529.5,1961 4552.4,1938.7 4520.8,1934.2 4506.7,1905.6 
			4492.6,1934.2 4461,1938.7 4483.8,1961 		"/>
		<path class="st9" d="M5095,3117.2c-7.2,1.9-14.5,4.6-22.4,7.2c-3.9,1.3-7.9,2.7-12.1,4.1c-4.1,1.4-8.4,2.7-12.6,4.5
			c-34.1,12.6-72.8,30.1-112.4,52.4c-39.5,22.3-79.7,49.8-117.1,80.6c-37.4,30.8-71.9,65.2-101.8,99.3
			c-29.9,34.2-55.1,68.5-75.2,98.9c-20,30.5-34.9,57.1-44.5,76.2c-4.9,9.5-8.4,17.2-10.8,22.5c-2.4,5.3-3.5,8.3-3.5,8.5
			c0.2,0.7,3.8-7.2,12-22.7c8.2-15.5,21-38.4,39.5-67.4c18.8-28.8,43.3-63.8,75.9-101.9c4-4.8,8.2-9.7,12.6-14.5
			c4.4-4.8,8.8-9.8,13.3-14.8c9.3-9.7,18.8-20,29.2-29.9c10.1-10.3,21.2-20.1,32.5-30.5c5.8-5,11.7-10.1,17.7-15.2
			c3-2.6,6-5.1,9.2-7.6c3.1-2.5,6.3-5,9.4-7.5c2-1.6,4.8-3.8,8.4-6.7c3.6-2.9,8.2-6.1,13.4-10c5.2-3.8,10.9-8.3,17.5-12.7
			c6.6-4.5,13.7-9.3,21.3-14.5c30.6-20.1,69.9-42.4,109.9-60.3c5-2.3,9.9-4.5,14.9-6.8c5-2,10-4,14.9-6c9.9-3.9,19.5-8,29-11.2
			c9.5-3.3,18.5-6.6,27.2-9.5c5.6-1.7,11-3.3,16.1-4.9c-1.3-0.9-2.3-1.6-3-2.1C5100.9,3115.6,5098,3116.4,5095,3117.2z"/>
		<path class="st5" d="M5093.7,3319.3c-4.9-4.2-10.5-9-17-13.6c-6.5-4.8-13.7-9.7-21.7-14.4c-8-4.8-16.7-9.3-26.1-13.7
			c-18.8-8.4-40.4-15.5-63.7-19c-23.3-3.4-46-3-66.4-0.5c-10.3,1.4-20,3.1-29,5.4c-9,2.1-17.4,4.7-25,7.4
			c-7.6,2.6-14.3,5.5-20.3,8.1c-5.9,2.6-10.9,5.1-15,7.3c-8.2,4.4-12.6,7.3-12.6,7.3s4.7,2.6,12.9,6.6c4.1,1.9,9.1,4.2,14.9,6.9
			c5.8,2.6,12.2,5.2,19.3,8.2c7.1,2.9,14.8,5.8,23,8.8c8.2,2.9,16.9,5.9,26,8.6c18.2,5.6,38,10.5,59,13.6c21,3.2,41.3,4.3,60.4,4.3
			c9.5,0.1,18.7-0.3,27.4-0.6c8.7-0.5,17-1,24.6-1.7c7.7-0.8,14.6-1.4,20.9-2.2c6.3-0.9,11.7-1.6,16.2-2.2c9-1.3,14.3-2.5,14.3-2.5
			s-3.4-4.1-9.9-10.6C5102.7,3327.4,5098.6,3323.4,5093.7,3319.3z"/>
		<path class="st5" d="M4801.7,3065.7c-2.5-3.1-5-6.2-7.5-8.9c-2.6-2.8-5.1-5.4-7.6-7.8c-4.9-4.9-9.9-9-14.2-12.4
			c-4.3-3.5-8.4-6.3-11.8-8.4c-6.8-4.3-10.9-6.4-10.9-6.4s-0.8,4.7-1.5,12.5c-0.4,3.9-0.8,8.6-1.3,13.9c-0.5,5.3-0.8,11.2-1.3,17.6
			c-0.2,3.2-0.4,6.5-0.5,9.9c-0.1,3.4-0.3,6.9-0.5,10.5c-0.1,7.1-0.4,14.6-0.1,22.2c0.2,15.3,1.3,31.3,4.2,47.7
			c2.8,16.4,7.2,31.8,12.3,46.2c2.4,7.2,5.2,14.2,7.7,20.8c1.4,3.3,2.7,6.5,4,9.7c1.2,3.1,2.5,6.2,3.8,9.1
			c2.7,5.9,4.9,11.3,7.2,16.1c2.3,4.9,4.3,9.1,5.9,12.7c3.4,7.1,5.7,11.2,5.7,11.2s3.2-3.3,8.1-9.7c2.5-3.2,5.4-7.2,8.2-11.9
			c2.9-4.8,6.2-10.3,9.1-16.5c1.5-3.1,3-6.4,4.5-9.9c1.5-3.5,2.7-7.1,4-11c2.7-7.6,4.7-15.9,6.4-24.7c3.1-17.6,3.8-37.3,0.4-57.4
			c-3.6-20.1-11-38.3-19.9-53.8C4811.6,3079.1,4806.9,3072,4801.7,3065.7z"/>
		<path class="st5" d="M4989.8,2977.8c-3.5-5.9-5.9-9.2-5.9-9.2s-3.1,2.7-7.8,7.6c-4.7,4.9-11.2,12-18,20.6
			c-13.6,17.4-28.7,40.7-35,68.2c-6.3,27.5-2.6,55.1,2.1,76.6c2.4,10.7,5.2,19.9,7.3,26.4c2.2,6.5,3.8,10.3,3.8,10.3
			s3.6-1.9,9.3-5.7c5.8-3.8,13.5-9.6,21.8-17.5c8.3-7.8,17.1-17.8,24.7-29.6c7.5-11.8,13.9-25.6,17.4-40.8
			c3.4-15.2,3.6-30.4,1.9-44.3c-1.8-14-5.4-26.7-9.5-37.3C4997.9,2992.3,4993.4,2983.7,4989.8,2977.8z"/>
		<path class="st5" d="M5209.4,3220.3c-4-4.3-8.6-9.2-14-14c-5.4-4.9-11.5-10-18.3-14.9c-6.8-5-14.4-9.7-22.5-14.3
			c-16.4-8.9-35.4-16.4-56.3-20.5c-20.8-4-41.3-4-59.9-1.9c-9.3,1.2-18,2.8-26.2,4.9c-8.2,2-15.7,4.5-22.5,7
			c-6.8,2.4-12.9,5.3-18.2,7.8c-5.3,2.5-9.8,5-13.5,7.1c-7.3,4.3-11.2,7.1-11.2,7.1s4.1,2.7,11.4,6.7c3.6,2,8,4.3,13.1,7
			c5,2.7,10.7,5.4,16.9,8.5c6.2,3,12.9,6,20,9.2c7.1,3,14.6,6.2,22.5,9c15.7,5.9,32.7,11.1,50.9,14.5c18.2,3.5,35.9,5,52.6,5.4
			c8.3,0.3,16.5,0.1,24.2,0c7.8-0.3,15.1-0.6,22-1.1c6.9-0.6,13.2-1,18.8-1.6c5.7-0.7,10.6-1.2,14.8-1.7c8.2-1,13.1-2,13.1-2
			s-2.6-4.1-7.8-10.8C5216.6,3228.6,5213.4,3224.6,5209.4,3220.3z"/>
		<path class="st5" d="M5192.9,3056.8c-53.3,7.2-90.6,57-90.6,57s0.5,0.4,1.4,1c0.7,0.5,1.7,1.2,3,2.1c13.2,8.9,54.2,33.7,98.1,27.7
			c53.3-7.2,90.6-57,90.6-57S5246.2,3049.6,5192.9,3056.8z"/>
		<path class="st9" d="M4507.1,3561.5c-2.2-6.3-6.2-14.9-11.6-24.8c-8.3-15.1-20-33.2-33-51.7c1,2,2,4,2.7,5.7
			c2.2,5,3.1,8.2,3.1,8.2s-0.4,0.3-1.1,0.8c5.5,8,11.5,17,17.2,26c7.3,11.5,13.9,22.8,18.1,31.6c4.4,8.7,6.3,14.7,7.1,14.4
			c0.1,0,0-1-0.4-2.8C4509,3567.1,4508.2,3564.6,4507.1,3561.5z"/>
		<path class="st9" d="M4412.4,3418.5c-4.6-5.8-9-11.2-13.1-16.2c-7.2-8.7-13.3-15.9-17.6-20.9c-4.4-5-7-7.8-7.2-7.7
			c-0.9,0.3,5.8,9.3,18.8,26.3c4.5,6,9.9,12.9,16,20.8c5.7,7.4,11.9,15.6,18.7,24.6c4.8,2.9,9.3,6.3,13.3,10.1
			C4431.3,3442.4,4421.4,3429.8,4412.4,3418.5z"/>
		<path class="st5" d="M4530.5,3352.1c-1.5-3.8-3-7.1-4.5-9.8c-2.8-5.4-4.9-8.3-4.9-8.3s-3.3,1.6-8.4,4.5c-2.5,1.4-5.6,3.2-8.9,5.1
			c-3.3,2-6.9,4.2-10.8,6.7c-7.5,4.9-15.9,11-23.3,18.7c-7.5,7.7-14.2,17.1-18.6,28.6c-4.3,11.6-5.8,24.2-5,36.3
			c0.9,12.3,3.9,23.8,8.3,33.3c1.1,2.4,2.1,4.6,3.3,6.6c1.2,2.1,2.4,4,3.6,5.8c1.2,1.8,2.3,3.4,3.4,4.8c1.1,1.4,2.3,2.8,3.4,3.9
			c4.3,4.5,7.1,6.6,7.1,6.6s2.6-2.5,6.8-6.6c1-1,2.1-2.1,3.3-3.2c1.2-1.1,2.6-2.3,4-3.6c1.4-1.2,2.8-2.5,4.3-3.9
			c1.5-1.3,3.1-2.7,4.8-4.1c6.3-5.6,13.5-11.8,19.7-18.9c6.4-7.2,12.2-15.5,16-25.7c3.9-10.2,5.4-21.4,5.3-32.4
			c-0.1-11.2-1.8-21.9-4.5-31.4C4533.5,3360.3,4532,3355.9,4530.5,3352.1z"/>
		<path class="st5" d="M4465.2,3490.6c-0.7-1.7-1.7-3.6-2.7-5.7c-2-4-4.5-8.5-7.7-13.2c-3.7-5.5-8.3-11.2-13.7-16.2
			c-4-3.8-8.4-7.2-13.3-10.1c-5.3-3.1-11.1-5.5-17.4-6.8c-19.7-4-39.9,4-54.4,13.7c-7.2,4.8-13,10-16.8,14c-3.8,4-5.7,6.8-5.7,6.8
			s2,2.8,5.1,7.1c3.2,4.3,7.5,10.1,12.6,16.3c10.3,12.2,24,25.6,41.5,29.1c17.5,3.6,35.8-3.4,50.3-11c7.2-3.8,13.4-7.7,17.9-10.7
			c2.8-1.8,4.9-3.3,6-4.2c0.7-0.5,1.1-0.8,1.1-0.8S4467.4,3495.7,4465.2,3490.6z"/>
		<path class="st5" d="M5117,3084.8c4.5-2,10.6-5.1,17.5-9.7c13.8-9,30.7-24.1,41.5-45.4c10.7-21.3,12.9-43.8,11.9-60.3
			c-0.5-8.3-1.6-15.1-2.6-19.9c-1-4.8-1.9-7.4-1.9-7.4s-2.3,1.7-6,4.8c-3.6,3.1-8.8,7.6-14.4,13.2c-11.3,11.3-24.9,26.5-34.5,45.7
			c-9.7,19.1-13.9,39.1-16.3,54.9c-1.2,7.9-1.7,14.6-2.1,19.4c-0.3,4.8-0.3,7.6-0.3,7.6S5112.6,3086.7,5117,3084.8z"/>
		<path class="st5" d="M5307.8,2953.1c-16.6,1.1-38.6,5.4-58.9,17.3c-20.3,12-34.8,29.1-43.8,43c-9,14-12.8,24.8-12.8,24.8
			s11.5,0.1,27.5-2.6c16.1-2.7,36.7-8,56-19.4c19.3-11.3,34-26.8,44.2-39.6c10.2-12.7,15.7-22.8,15.7-22.8
			S5324.4,2952,5307.8,2953.1z"/>
		<path class="st5" d="M4937.2,3467.4c-3.7-4.4-7.9-9.3-12.9-14.2c-9.9-10-22.5-20.6-37.5-30.2c-15.1-9.5-32.7-17.9-52.2-23.1
			c-19.5-5.2-39-6.7-56.8-6.1c-17.9,0.8-34.1,3.7-47.6,7.4c-6.8,1.8-12.9,3.9-18.2,5.8c-5.3,1.9-9.9,3.9-13.7,5.6
			c-7.5,3.4-11.6,5.8-11.6,5.8s3.6,3.1,10.1,8c3.3,2.4,7.2,5.2,11.8,8.4c4.6,3.2,9.7,6.5,15.4,10.2c11.3,7.1,24.6,15,39.3,22.1
			c14.7,7.2,30.9,13.7,48.4,18.3c17.5,4.7,34.7,7.2,51,8.3c16.3,1.2,31.7,1.1,45.1,0.5c6.7-0.4,12.9-0.7,18.4-1.2
			c5.5-0.5,10.4-1,14.4-1.4c8-0.9,12.8-1.8,12.8-1.8s-2.4-4.1-7.1-10.8C4943.8,3475.7,4940.8,3471.7,4937.2,3467.4z"/>
		<path class="st5" d="M4606,3264.3c0.4,5.7,0.6,11.6,1.3,17.5c1.2,11.9,3.4,24,7.6,35.9c4.1,12,9.9,22.8,16.4,32.9
			c3.1,5.1,6.6,9.9,9.9,14.5c3.4,4.6,6.7,9.1,10,13.2c3.3,4.1,6.3,8,9.2,11.4c2.9,3.5,5.5,6.5,7.6,9c4.3,5.1,7.2,8.1,7.2,8.1
			s2.7-2.9,6.7-8.6c2-2.8,4.3-6.3,6.6-10.4c2.3-4.1,4.8-8.9,6.9-14.3c2.2-5.4,4.3-11.4,5.8-17.8c1.7-6.5,2.7-13.4,3.4-20.8
			c1-14.6-0.4-30.7-5.8-46.4c-5.5-15.6-14.4-29.1-24.3-39.9c-5.1-5.3-10.2-10.1-15.6-14.2c-5.2-4.1-10.6-7.5-15.7-10.3
			c-5-2.9-10-5.1-14.3-6.9c-4.3-1.8-8.3-3.1-11.6-4.1c-6.6-1.9-10.5-2.6-10.5-2.6s-0.4,4.1-0.6,10.8c-0.1,3.3-0.2,7.3-0.3,11.8
			c-0.1,4.5,0,9.3-0.1,14.7C4605.6,3253,4605.8,3258.5,4606,3264.3z"/>
		<polygon class="st6" points="3717.7,2109.6 4556.9,2109.6 4560.3,2067.9 3721.1,2067.9 		"/>
		<polygon class="st6" points="4552.4,2165.3 3713.2,2165.3 3709.7,2207 4548.9,2207 		"/>
		<polygon class="st6" points="4544.4,2262.6 3705.2,2262.6 3701.7,2304.3 4540.9,2304.3 		"/>
		<polygon class="st6" points="4536.4,2359.9 3697.2,2359.9 3693.8,2401.6 4533,2401.6 		"/>
		<path class="st4" d="M4060.4,2701.9c40.8,0,377.5,1.4,376.1-11.5c-1-8.8-783.6-9-786.4-1.6
			C3647.7,2695.3,3796.7,2701.9,4060.4,2701.9z"/>
		<path class="st4" d="M4039.2,2986.8c38.7,0,358,1.4,356.7-11.5c-0.9-8.8-743.1-9-745.8-1.6
			C3647.8,2980.3,3789.1,2986.8,4039.2,2986.8z"/>
		<path class="st4" d="M4373.6,2769.9c-0.9-8.8-688.5-6.3-690.9,1.1c-2.1,6.6,128.8,12.6,360.5,11.7
			C4079,2782.5,4374.8,2782.7,4373.6,2769.9z"/>
		<path class="st4" d="M3668.5,2878.7c-2,6.6,129.7,10.7,362.8,6.5c36.1-0.7,333.6-4.7,332.1-17.5
			C4362.4,2858.9,3670.8,2871.2,3668.5,2878.7z"/>
		<polygon class="st4" points="1848.9,1142.6 1860,1076.5 2083.3,981.8 1814.4,1054.1 		"/>
		<polygon class="st0" points="2083.3,981.8 1738.3,1022.3 1814.4,1054.1 		"/>
		<polygon class="st2" points="1860,1076.5 1848.9,1142.6 1912.5,1099.1 		"/>
		<polygon class="st0" points="1912.5,1099.1 1925.3,1104.5 2083.3,981.8 1860,1076.5 		"/>
		<path class="st8" d="M3936,719.9h-910.4v686.7H3936V719.9z M3896.7,1378h-831.8V756.5h831.8V1378z"/>
		<path class="st7" d="M3064.8,1378h831.8V756.5h-831.8V1378z M3394.5,1319.2h-45.4v-28.1h45.4V1319.2z M3394.5,1243.5h-45.4v-28.1
			h45.4V1243.5z M3394.5,1167.9h-45.4v-28.1h45.4V1167.9z M3394.5,1092.2h-45.4v-28.1h45.4V1092.2z M3394.5,1016.5h-45.4v-28.1h45.4
			V1016.5z M3394.5,940.9h-45.4v-28.1h45.4V940.9z M3503.5,1319.2H3458v-28.1h45.4V1319.2z M3503.5,1243.5H3458v-28.1h45.4V1243.5z
			 M3503.5,1167.9H3458v-28.1h45.4V1167.9z M3503.5,1092.2H3458v-28.1h45.4V1092.2z M3503.5,1016.5H3458v-28.1h45.4V1016.5z
			 M3503.5,940.9H3458v-28.1h45.4V940.9z M3612.4,1319.2H3567v-28.1h45.4V1319.2z M3612.4,1243.5H3567v-28.1h45.4V1243.5z
			 M3612.4,1167.9H3567v-28.1h45.4V1167.9z M3612.4,1092.2H3567v-28.1h45.4V1092.2z M3612.4,1016.5H3567v-28.1h45.4V1016.5z
			 M3612.4,940.9H3567v-28.1h45.4V940.9z M3784.8,912.8h45.4v28.1h-45.4V912.8z M3784.8,988.4h45.4v28.1h-45.4V988.4z
			 M3784.8,1064.1h45.4v28.1h-45.4V1064.1z M3784.8,1139.8h45.4v28.1h-45.4V1139.8z M3784.8,1215.4h45.4v28.1h-45.4V1215.4z
			 M3784.8,1291.1h45.4v28.1h-45.4V1291.1z M3675.9,912.8h45.4v28.1h-45.4V912.8z M3675.9,988.4h45.4v28.1h-45.4V988.4z
			 M3675.9,1064.1h45.4v28.1h-45.4V1064.1z M3675.9,1139.8h45.4v28.1h-45.4V1139.8z M3675.9,1215.4h45.4v28.1h-45.4V1215.4z
			 M3675.9,1291.1h45.4v28.1h-45.4V1291.1z M3608.1,813.8c0.5,12.8-108.6,11.5-121.8,11.5c-85.4,0-133.7-6.6-132.9-13.1
			C3354.3,804.7,3607.8,805,3608.1,813.8z M3644.8,854.8c0.6,12.8-139.9,11.5-157,11.5c-110.1,0-172.2-6.6-171.2-13.1
			C3317.8,845.7,3644.4,845.9,3644.8,854.8z M3240.2,912.8h45.4v28.1h-45.4V912.8z M3240.2,988.4h45.4v28.1h-45.4V988.4z
			 M3240.2,1064.1h45.4v28.1h-45.4V1064.1z M3240.2,1139.8h45.4v28.1h-45.4V1139.8z M3240.2,1215.4h45.4v28.1h-45.4V1215.4z
			 M3240.2,1291.1h45.4v28.1h-45.4V1291.1z M3131.2,912.8h45.4v28.1h-45.4V912.8z M3131.2,988.4h45.4v28.1h-45.4V988.4z
			 M3131.2,1064.1h45.4v28.1h-45.4V1064.1z M3131.2,1139.8h45.4v28.1h-45.4V1139.8z M3131.2,1215.4h45.4v28.1h-45.4V1215.4z
			 M3131.2,1291.1h45.4v28.1h-45.4V1291.1z"/>
		<rect x="3131.2" y="912.8" class="st0" width="45.4" height="28.1"/>
		<rect x="3240.2" y="912.8" class="st0" width="45.4" height="28.1"/>
		<rect x="3349.1" y="912.8" class="st0" width="45.4" height="28.1"/>
		<rect x="3458" y="912.8" class="st0" width="45.4" height="28.1"/>
		<rect x="3567" y="912.8" class="st0" width="45.4" height="28.1"/>
		<rect x="3675.9" y="912.8" class="st0" width="45.4" height="28.1"/>
		<rect x="3784.8" y="912.8" class="st0" width="45.4" height="28.1"/>
		<rect x="3131.2" y="988.4" class="st0" width="45.4" height="28.1"/>
		<rect x="3240.2" y="988.4" class="st0" width="45.4" height="28.1"/>
		<rect x="3349.1" y="988.4" class="st0" width="45.4" height="28.1"/>
		<rect x="3458" y="988.4" class="st0" width="45.4" height="28.1"/>
		<rect x="3567" y="988.4" class="st0" width="45.4" height="28.1"/>
		<rect x="3675.9" y="988.4" class="st0" width="45.4" height="28.1"/>
		<rect x="3784.8" y="988.4" class="st0" width="45.4" height="28.1"/>
		<rect x="3131.2" y="1064.1" class="st0" width="45.4" height="28.1"/>
		<rect x="3240.2" y="1064.1" class="st0" width="45.4" height="28.1"/>
		<rect x="3349.1" y="1064.1" class="st0" width="45.4" height="28.1"/>
		<rect x="3458" y="1064.1" class="st0" width="45.4" height="28.1"/>
		<rect x="3567" y="1064.1" class="st0" width="45.4" height="28.1"/>
		<rect x="3675.9" y="1064.1" class="st0" width="45.4" height="28.1"/>
		<rect x="3784.8" y="1064.1" class="st0" width="45.4" height="28.1"/>
		<rect x="3131.2" y="1139.8" class="st0" width="45.4" height="28.1"/>
		<rect x="3240.2" y="1139.8" class="st0" width="45.4" height="28.1"/>
		<rect x="3349.1" y="1139.8" class="st0" width="45.4" height="28.1"/>
		<rect x="3458" y="1139.8" class="st0" width="45.4" height="28.1"/>
		<rect x="3567" y="1139.8" class="st0" width="45.4" height="28.1"/>
		<rect x="3675.9" y="1139.8" class="st0" width="45.4" height="28.1"/>
		<rect x="3784.8" y="1139.8" class="st0" width="45.4" height="28.1"/>
		<rect x="3131.2" y="1215.4" class="st0" width="45.4" height="28.1"/>
		<rect x="3240.2" y="1215.4" class="st0" width="45.4" height="28.1"/>
		<rect x="3349.1" y="1215.4" class="st0" width="45.4" height="28.1"/>
		<rect x="3458" y="1215.4" class="st0" width="45.4" height="28.1"/>
		<rect x="3567" y="1215.4" class="st0" width="45.4" height="28.1"/>
		<rect x="3675.9" y="1215.4" class="st0" width="45.4" height="28.1"/>
		<rect x="3784.8" y="1215.4" class="st0" width="45.4" height="28.1"/>
		<rect x="3131.2" y="1291.1" class="st0" width="45.4" height="28.1"/>
		<rect x="3240.2" y="1291.1" class="st0" width="45.4" height="28.1"/>
		<rect x="3349.1" y="1291.1" class="st0" width="45.4" height="28.1"/>
		<rect x="3458" y="1291.1" class="st0" width="45.4" height="28.1"/>
		<rect x="3567" y="1291.1" class="st0" width="45.4" height="28.1"/>
		<rect x="3675.9" y="1291.1" class="st0" width="45.4" height="28.1"/>
		<rect x="3784.8" y="1291.1" class="st0" width="45.4" height="28.1"/>
		<path class="st3" d="M3486.3,825.2c13.2,0,122.3,1.4,121.8-11.5c-0.3-8.8-253.8-9-254.7-1.6
			C3352.6,818.7,3400.9,825.2,3486.3,825.2z"/>
		<path class="st3" d="M3487.9,866.2c17,0,157.5,1.4,157-11.5c-0.4-8.8-327-9-328.2-1.6C3315.6,859.7,3377.8,866.2,3487.9,866.2z"/>
		<path class="st0" d="M3127.3,2188.7c-1.9-3-2.7-6.3-2.7-9.7c20.6-7.8,36.3-27.4,36.9-49.8c0.6-23.6-16.8-42.5-40.7-44.3
			c-29.1-2.1-56.2,20.5-59.5,48.7c-2.4,20.5,8.5,38.1,26,45.3c-0.8,3.4-2.4,6.8-5,9.7c-43.2,2.8-81.2,37.6-86.2,80.3l-5.9,50
			c-1.4,12.3,7.6,22.3,20.2,22.3h152.9c12.6,0,24-10,25.4-22.3l5.9-50C3199.6,2226.4,3169.8,2191.5,3127.3,2188.7z"/>
		<path class="st3" d="M2818.2,2406.7c1.4,1.6,3.5,2.5,5.7,2.5h548.7c3.8,0,7.1-2.9,7.5-6.7l46.1-393.8c0.3-2.2-0.4-4.3-1.9-5.9
			c-1.4-1.6-3.5-2.5-5.7-2.5H2870c-3.8,0-7.1,2.9-7.5,6.7l-46.1,393.8C2816.1,2402.9,2816.8,2405.1,2818.2,2406.7z M2876.8,2015.4
			h533.4l-44.3,378.6h-533.4L2876.8,2015.4z"/>
		<path class="st10" d="M2493.6,850.8c0,19.2,15.5,34.7,34.7,34.7c19.2,0,34.7-15.5,34.7-34.7c0-1.9-0.2-3.8-0.5-5.6h-68.4
			C2493.8,847,2493.6,848.9,2493.6,850.8z"/>
		<path class="st0" d="M2562.5,845.2h249l-230.7-134.5l-32-40.2H2534h-2.1v29.1c0,2-1.6,3.6-3.6,3.6c-2,0-3.6-1.6-3.6-3.6v-29.1
			h-2.1h-14.8l-32,40.2l-230.7,134.5h249H2562.5z"/>
		<path class="st0" d="M2528.3,703.2c2,0,3.6-1.6,3.6-3.6v-29.1V406.7c0-2-1.6-3.6-3.6-3.6c-2,0-3.6,1.6-3.6,3.6v263.8v29.1
			C2524.7,701.6,2526.3,703.2,2528.3,703.2z"/>
		<path class="st10" d="M1368,850.8c0,19.2,15.5,34.7,34.7,34.7c19.2,0,34.7-15.5,34.7-34.7c0-1.9-0.2-3.8-0.5-5.6h-68.4
			C1368.2,847,1368,848.9,1368,850.8z"/>
		<path class="st0" d="M1436.9,845.2h249l-230.7-134.5l-32-40.2h-14.8h-2.1v29.1c0,2-1.6,3.6-3.6,3.6s-3.6-1.6-3.6-3.6v-29.1h-2.1
			h-14.8l-32,40.2l-230.7,134.5h249H1436.9z"/>
		<path class="st0" d="M1402.7,703.2c2,0,3.6-1.6,3.6-3.6v-29.1V406.7c0-2-1.6-3.6-3.6-3.6s-3.6,1.6-3.6,3.6v263.8v29.1
			C1399.1,701.6,1400.7,703.2,1402.7,703.2z"/>
		<path class="st4" d="M3579.9,2701c13.1,0,23.8-7.4,23.8-16.6c0-9.2-10.6-16.6-23.8-16.6c-13.1,0-23.8,7.4-23.8,16.6
			C3556.2,2693.6,3566.8,2701,3579.9,2701z"/>
		<path class="st4" d="M3575.6,2788.8c13.1,0,23.8-7.4,23.8-16.6c0-9.2-10.6-16.6-23.8-16.6c-13.1,0-23.8,7.4-23.8,16.6
			C3551.8,2781.3,3562.5,2788.8,3575.6,2788.8z"/>
		<path class="st4" d="M3575.6,2896.1c13.1,0,23.8-7.4,23.8-16.6c0-9.2-10.6-16.6-23.8-16.6c-13.1,0-23.8,7.4-23.8,16.6
			C3551.8,2888.7,3562.5,2896.1,3575.6,2896.1z"/>
		<path class="st4" d="M3567,2982.6c13.1,0,23.8-7.4,23.8-16.6c0-9.2-10.6-16.6-23.8-16.6c-13.1,0-23.8,7.4-23.8,16.6
			C3543.2,2975.2,3553.8,2982.6,3567,2982.6z"/>
		<path class="st11" d="M2752.5,3145.4h538h84.8l77.1-642.7h-844.7h0l-44.4,427.1c-3.6,34.3,1,66.6,11.9,95.4
			c40.4-24.5,77-44.1,106.5-57.2l7.3,10.4l40.1-28c-56.7-96.5-30.4-221.9,62.9-287.1c98.1-68.5,233.2-44.5,301.7,53.6
			c68.5,98.1,44.5,233.2-53.6,301.7c-93.3,65.2-220.1,46.7-291.2-39.8l-40.1,28l-1.1-1.6l8.4,12c-22.5,23.3-53.7,51.1-90.9,80.8
			c1.7,1.5,3.4,3.1,5.2,4.6C2662.8,3129.4,2705,3145.4,2752.5,3145.4z"/>
		<polygon class="st11" points="3560.9,2528 4657.8,2532.8 4657.8,2532.8 4660.9,2502.6 3564.8,2502.6 		"/>
		<path class="st12" d="M2750.5,3457.2c-0.5,0-1-1.2-1.4-3.2h-38.2h-22.5v143h76.9v-143H2751
			C2750.9,3456,2750.7,3457.2,2750.5,3457.2z M2724.7,3576.6c-3.2,0.2-2.9-51.3-2.9-57.5c0-40.3,1.6-63.1,3.3-62.7
			C2727,3456.8,2726.9,3576.5,2724.7,3576.6z"/>
		<path class="st13" d="M2751,3454h14.3h22.5V3354H2749C2750.6,3362.4,2752.2,3437.5,2751,3454z"/>
		<path class="st13" d="M2710.9,3454h38.2c-2-10.3-2.4-41.9-2.5-46.4c-0.6-30.5,0.2-49.4,1.6-53.5h-37.2V3454z"/>
		<path class="st11" d="M2471.3,3454c-0.4,10.6-0.8,17.6-1.4,17.6c-1.3,0.1-1.9-7.7-2.2-17.6h-3.9c0,55.3-0.6,111.2-1.7,111.3
			c-3.2,0.4-2.9-93.5-2.9-104.9c0-2.2,0-4.3,0-6.4h-139.4h-54.4v143h76.9h346.1v-143H2471.3z M2474.8,3576.8
			c-0.8,10.3-1.8,17.2-2.3,17.2c-1.6,0-1.4-11.8-1.2-24.3c0.2-12.7,0.4-25.7,0.5-28.6c0.1-36.9-0.4-57.9,1.4-57.7
			c0.5,0.1,1.3,7,2,17.4c0.7,10.4,1.2,24.2,1.2,38C2476.3,3552.7,2475.7,3566.5,2474.8,3576.8z"/>
		<path class="st14" d="M2471.3,3454h217.1h22.5V3354h-239.4C2472.6,3362.7,2472.4,3423.3,2471.3,3454z"/>
		<path class="st14" d="M2459.2,3454c0.1-50.7,0.9-85.2,2-99.9h-141.4h-76.9v99.9h22.5h54.4H2459.2z"/>
		<path class="st14" d="M2463.8,3454h3.9c-0.5-15.2-0.2-35.4-0.2-39.1c0.3-34.5,1.6-55.9,3.1-60.8h-7.6
			C2463.5,3371,2463.8,3412.3,2463.8,3454z"/>
		<path class="st9" d="M2459.2,3454c0,2.1,0,4.2,0,6.4c0,11.4-0.3,105.3,2.9,104.9c1.1-0.1,1.7-56,1.7-111.3
			c0-41.6-0.2-82.9-0.8-99.9c-0.2-5.1-0.3-8-0.6-8.1c-0.4-0.2-0.9,2.6-1.3,8.1C2460.1,3368.8,2459.2,3403.3,2459.2,3454z"/>
		<path class="st9" d="M2479.1,3340.8c4.3,4.2,8.4,8.2,9.6,7.2c0.9-0.7-7.1-11.7-17-21c-9.7-9.5-21-17.1-21.6-16.4
			c-1.2,1.3,6.4,8.2,19.2,20.5C2470.3,3332.1,2474.6,3336.3,2479.1,3340.8z"/>
		<path class="st9" d="M2512,3342.1c4.1-4.6,10.6-11.2,20.8-16.6c1.5-0.9,9-4.5,16.7-6.1c3.8-1,7.6-1.4,10.4-1.8
			c2.8-0.3,4.8-0.8,4.8-1.6c0-0.5-4.5-1.5-11.4-1.1c-3.4,0.2-7.4,0.9-11.6,2.1c-4.1,1.2-8.4,3-12.5,5.2c-4,2.3-7.8,5-11,7.9
			c-3.2,3-5.9,5.9-7.9,8.8c-4,5.7-5.6,10.1-5.2,10.3C2505.9,3349.6,2507.9,3346.8,2512,3342.1z"/>
		<path class="st9" d="M2746.6,3407.5c0.1,4.5,0.5,36.2,2.5,46.4c0.4,2.1,0.9,3.3,1.4,3.2c0.2,0,0.4-1.2,0.6-3.2
			c1.1-16.5-0.4-91.5-2-99.9c-0.1-0.5-0.2-0.8-0.3-0.8c-0.2,0-0.4,0.2-0.6,0.8C2746.8,3358.1,2745.9,3377,2746.6,3407.5z"/>
		<path class="st9" d="M2721.9,3519.1c0,6.2-0.3,57.7,2.9,57.5c2.2-0.1,2.3-119.8,0.4-120.2
			C2723.5,3456,2721.9,3478.8,2721.9,3519.1z"/>
		<path class="st9" d="M2467.7,3454c0.3,9.9,1,17.7,2.2,17.6c0.5,0,1-7,1.4-17.6c1-30.6,1.3-91.2,0.2-99.9c-0.1-0.7-0.2-1-0.3-1.1
			c-0.2-0.1-0.4,0.3-0.7,1.1c-1.4,4.8-2.8,26.3-3.1,60.8C2467.5,3418.5,2467.2,3438.7,2467.7,3454z"/>
		<path class="st9" d="M2473.1,3483.5c-1.8-0.2-1.3,20.7-1.4,57.7c0,2.8-0.3,15.9-0.5,28.6c-0.2,12.5-0.4,24.3,1.2,24.3
			c0.5,0,1.5-6.8,2.3-17.2c0.9-10.3,1.5-24.1,1.5-38c0.1-13.8-0.4-27.7-1.2-38C2474.5,3490.4,2473.6,3483.5,2473.1,3483.5z"/>
		<path class="st15" d="M2748.9,2978.7c-3.7-4.4-7.2-9-10.5-13.8c-3.3-4.8-6.4-9.6-9.3-14.6l-40.1,28l18.7,26.8l1.1,1.6
			L2748.9,2978.7z"/>
		<path class="st4" d="M2748.9,2978.7c71.1,86.4,197.9,105,291.2,39.8c98.1-68.5,122.1-203.6,53.6-301.7
			c-68.5-98.1-203.6-122.1-301.7-53.6c-93.3,65.2-119.6,190.6-62.9,287.1c2.9,4.9,6,9.8,9.3,14.6
			C2741.7,2969.7,2745.2,2974.3,2748.9,2978.7z M2810.1,2689.3c83.7-58.5,199-38,257.5,45.7c58.5,83.7,38,199-45.7,257.5
			c-83.7,58.5-199,38-257.5-45.7C2705.9,2863,2726.4,2747.7,2810.1,2689.3z"/>
		<path class="st8" d="M3021.9,2992.5c83.7-58.5,104.2-173.7,45.7-257.5c-58.5-83.7-173.8-104.2-257.5-45.7
			c-83.7,58.5-104.2,173.8-45.7,257.5C2822.9,3030.5,2938.2,3050.9,3021.9,2992.5z M3040.2,2896.6c1.2-2.1,2.5-4.2,3.8-6.1
			c1.1-2,2.1-4,3.1-5.8c1.8-3.5,2.9-6.4,3.4-7.4c2.5-6.6,4.1-12.6,5.3-18c1.1-5.4,1.8-10.1,2.5-14.1c1.2-7.9,2.3-12.5,4.6-13.3
			c1.4-0.2,4.2,5.6,5.3,14.8c1.3,9.2,0.2,21.9-4.2,33.6c-4.2,11.8-11.8,21.9-18.5,28c-3.2,3.2-6.5,5.3-8.8,6.6
			c-2.3,1.3-3.9,1.8-4.4,1.1C3029.1,2912.3,3035,2904.7,3040.2,2896.6z M3012,2949.7c3,4.7-25.9,24.3-29.7,18.9
			c-5.5-7.9,7.5-15.6,9-16.6C3001,2945.3,3009.3,2945.5,3012,2949.7z M2862.3,2774.2c7.2-40.6,45.9-67.6,86.5-60.4
			c40.6,7.2,67.6,45.9,60.4,86.5c-7.2,40.6-45.9,67.6-86.5,60.4C2882.1,2853.5,2855.1,2814.8,2862.3,2774.2z"/>
		<path class="st3" d="M2712.6,3012.3l3.4,4.8l-8.4-12l-18.7-26.8l-7.3-10.4c-29.5,13-66.1,32.6-106.5,57.2
			c-9.1,5.5-18.4,11.3-27.8,17.3c-21.2,13.5-43.1,28-65.4,43.6c-68.8,48.1-127.8,96-167.2,134.4l25.9,37.1
			c33.7-19.2,108.4-59,177.8-103.3C2599.4,3102.5,2690.7,3030,2712.6,3012.3z"/>
		<path class="st4" d="M2716,3017.2l-3.4-4.8c-21.9,17.6-113.2,90.2-194.3,141.9c-69.4,44.3-144.1,84.1-177.8,103.3h0l12.1,17.3
			c43.4-20.8,98.8-53.1,158.1-93.1c8.5-5.7,17-11.6,25.6-17.6c22.1-15.5,43.2-30.9,63-46.1c8.8-6.8,17.4-13.5,25.7-20.1
			C2662.3,3068.3,2693.5,3040.5,2716,3017.2z"/>
		<path class="st16" d="M3036.7,2915c2.3-1.3,5.6-3.4,8.8-6.6c6.8-6.1,14.3-16.2,18.5-28c4.4-11.7,5.5-24.4,4.2-33.6
			c-1.1-9.2-3.9-15-5.3-14.8c-2.4,0.7-3.4,5.4-4.6,13.3c-0.6,3.9-1.4,8.7-2.5,14.1c-1.2,5.4-2.8,11.4-5.3,18c-0.5,1-1.6,3.8-3.4,7.4
			c-0.9,1.8-2,3.7-3.1,5.8c-1.3,2-2.5,4-3.8,6.1c-5.2,8.1-11.1,15.7-7.9,19.5C3032.8,2916.7,3034.3,2916.3,3036.7,2915z"/>
		<path class="st16" d="M2991.3,2951.9c-1.5,1-14.5,8.7-9,16.6c3.8,5.4,32.7-14.2,29.7-18.9
			C3009.3,2945.5,3001,2945.3,2991.3,2951.9z"/>
		<path class="st16" d="M2922.7,2860.7c40.6,7.2,79.3-19.8,86.5-60.4c7.2-40.6-19.8-79.3-60.4-86.5c-40.6-7.2-79.3,19.8-86.5,60.4
			C2855.1,2814.8,2882.1,2853.5,2922.7,2860.7z"/>
		<path class="st5" d="M2768.4,1889.8c4-11.1-23.2-19.3-41.8-29c-11.8-6.1-20.1-12.8-15.1-21.1c4.5-7.4,16.9-13.6,31.4-19.8
			c0,0,35.1-5.8,58.3-12.3c9.3-2.6,16.7-5.3,19.1-7.8c0.2-0.2,0.4-0.5,0.6-0.7c4.5-7.6-1.8-14.1-10.2-14.3c-0.4,0.2-0.9,0.3-1.3,0.5
			c-8,2.8-16.6,4.5-18.5,4.9c-24.1,4.9-38.2,4.7-38.1,3.1c0-0.9,18-3.7,35.7-7.3c8.9-1.8,17.7-3.8,24-5.8c3.2-1,5.7-2,7.4-2.9
			c1.7-0.8,2.4-1.5,2.6-1.3c0.2,0.1,0.2,0.4,0.2,0.7c2.9-3.5,3.5-7.4,2.4-10.9c-0.1-0.4-0.4-0.8-0.7-1.1c-4.6-5.2-27.8,1.1-27.8,1.1
			s4.9-8.5-4.7-11.7c-9.5-3.2-22.5,2.3-22.5,2.3s-1.1-7.6-7.7-7c-6.7,0.5-41.2,12.1-48.8,18.6v0c-42.6,26.5-60.4,38.9-60.4,38.9
			s-241.4-15.9-252.2-27.7c-12.7-21.5-24.3-54.7-33.2-84.7c-27.8,24.8-49.6,43.2-65.8,56.5c-10.1,8.3-17.9,14.5-23.8,18.9
			c16.1,49,42.7,109.1,78.4,118.5c61.6,16.2,314.6-9.7,314.6-9.7s0.3,0.1,0.7,0.2c3,0.9,16.6,5.2,32.8,9.2
			C2730.8,1894.6,2764.6,1900.6,2768.4,1889.8z M2714,1836c-1.2,0.8-3,2.1-4.4,3.9c-1.3,1.9-1.9,4.3-0.8,7c1,2.7,3.1,5.5,5.6,7.8
			c5,4.7,11.5,8,16.4,10.3c4.9,2.3,8.3,3.6,8.2,4.1c-0.3,1.6-6.8,0.6-13.1-2c-3.2-1.3-6.3-3-8.8-4.6c-2.5-1.6-4.2-3.1-4.8-3.6
			c-4-3.5-6.9-7.6-7.8-12c-0.4-2.2-0.1-4.5,0.6-6.3c0.8-1.8,2-3,3.1-4c2.3-1.8,4.3-2.4,5.7-2.6c1.4-0.2,2.1,0,2.2,0.4
			C2716,1834.8,2715.2,1835.2,2714,1836z M2785.2,1766.4c5.7-1.2,9.6-1.5,9.7-1c0.3,1.6-5.9,3.5-12.5,5.7
			c-6.6,2.1-13.7,4.2-15.2,4.6c-19.8,6-31.3,8.2-31.7,6.5c-0.2-0.9,14.3-6.1,29.1-10.6C2772,1769.5,2779.5,1767.6,2785.2,1766.4z
			 M2740.5,1764c6.9-2.8,13.9-5.3,19.3-6.8c5.4-1.5,9.3-1.9,9.4-1.3c0.3,1.6-5.5,3.6-11.6,6.2c-6.5,2.6-12.8,5.1-14.2,5.7
			c-18.3,7.5-29.1,11-29.6,9.4C2713.5,1776.3,2726.8,1769.6,2740.5,1764z"/>
		<path class="st17" d="M2735.5,1782.3c0.3,1.6,11.9-0.5,31.7-6.5c1.5-0.5,8.6-2.5,15.2-4.6c6.6-2.2,12.8-4.2,12.5-5.7
			c-0.1-0.5-4.1-0.2-9.7,1c-5.7,1.2-13.2,3.2-20.5,5.4C2749.9,1776.2,2735.3,1781.4,2735.5,1782.3z"/>
		<path class="st17" d="M2822.5,1776.1c-0.3-0.2-1,0.5-2.6,1.3c-1.6,0.8-4.2,1.9-7.4,2.9c-6.4,2-15.2,4-24,5.8
			c-17.7,3.6-35.7,6.4-35.7,7.3c0,1.6,14,1.8,38.1-3.1c1.9-0.4,10.5-2.1,18.5-4.9c0.4-0.2,0.9-0.3,1.3-0.5c3.5-1.3,6.7-2.8,9-4.5
			c1.3-0.9,2.2-1.9,2.7-2.7c0.2-0.4,0.3-0.7,0.3-0.9C2822.7,1776.4,2822.7,1776.2,2822.5,1776.1z"/>
		<path class="st17" d="M2713.7,1834.1c-1.4,0.2-3.4,0.8-5.7,2.6c-1.1,0.9-2.3,2.2-3.1,4c-0.7,1.8-1,4-0.6,6.3
			c0.9,4.4,3.9,8.5,7.8,12c0.6,0.5,2.4,2,4.8,3.6c2.5,1.6,5.6,3.3,8.8,4.6c6.4,2.6,12.8,3.6,13.1,2c0.1-0.5-3.3-1.8-8.2-4.1
			c-4.9-2.3-11.4-5.6-16.4-10.3c-2.5-2.3-4.6-5.1-5.6-7.8c-1.1-2.7-0.5-5.1,0.8-7c1.4-1.8,3.1-3.1,4.4-3.9c1.3-0.8,2.1-1.3,2-1.5
			C2715.9,1834.1,2715.1,1833.9,2713.7,1834.1z"/>
		<path class="st17" d="M2743.4,1767.8c1.4-0.6,7.7-3.1,14.2-5.7c6.1-2.6,12-4.7,11.6-6.2c-0.1-0.5-4-0.2-9.4,1.3
			c-5.4,1.5-12.4,4-19.3,6.8c-13.8,5.6-27,12.3-26.7,13.2C2714.3,1778.8,2725.1,1775.4,2743.4,1767.8z"/>
		<path class="st15" d="M1996,3449.9c3.3,1.3,6.8,2.7,10.5,4.2l12.8-46.8c-3.7-1.2-8.6-3-14.1-5.4
			C2000.1,3427.4,1996,3449.9,1996,3449.9z"/>
		<path class="st15" d="M1989.8,3432.3c-0.5,2.6-0.9,5.3-1.4,7.9c-2.8,1.2-5.7,2.3-8.6,3.3c4.6,1.9,10,4,16.2,6.5l-6.9-13.6
			C1989.3,3435,1989.5,3433.6,1989.8,3432.3z"/>
		<path class="st18" d="M2069.8,2013.8l-5.3,196.4c0,0,0.7,10.5,1.6,30.1c1-26.5,2.3-40.4,3.8-39.9c0.9,0.3,1.7,21.1,2.4,52.6
			c18.8,33.8,39.6,89.3,35.9,166.1c-6.5,136.2,0.3,208.6,6.1,223.8c3.1,8.2-2.4,22.6-8.6,34.5c7.4,23.2,12,37.1,12,37.1
			s-0.4,0.8-1.1,2.3c2.4,0,6.1,0.8,9.9,2.3c6.1,2.2,11.7,6.1,12.9,7c7.8,5.5,12.6,11.4,15.2,15.7c2.6,4.3,3.1,7,2.4,7.3
			c-0.5,0.2-2.5-2.5-5.8-6.3c-3.3-3.8-8.1-8.4-13.5-12.3c-5.4-3.9-11.3-7.1-15.9-9.1c-2.6-1.2-4.8-2-6.1-2.7
			c-4.6,9.9-17,37.6-34.5,85.7c0,0,1.1,149.2-13.4,230c-14.4,80.7-40.7,292.9-45.6,295.6c-2.7,1.5-10.7,39.2-17.2,72
			c5.5,2.4,10.3,4.2,14.1,5.4c4.8,1.6,7.8,2.2,7.8,2.2s329.3-490.6,358.2-575.8c28.8-85.1-200.3-849.2-200.4-849.4
			C2165.1,2003.3,2121,2011.6,2069.8,2013.8z M2150.3,2688.7c-2.1,5.1-5.3,9.7-8.9,13.3c-3.6,3.6-7.5,6.3-11,8.2
			c-7,3.9-12.2,5.2-12.3,4.8c-0.7-1.5,7.4-5.2,14.5-10.9c3.6-2.8,6.8-6.2,9-9.2c2.3-3,3.5-5.6,3.9-6.5c2.7-6,3.7-11.9,3.7-17.1
			c0.1-5.2-0.6-9.6-1.3-13.2c-1.4-7.1-2.8-10.8-2-11.2c0.4-0.1,3.5,4.4,5.7,12.2c1.1,3.9,1.9,8.6,1.9,13.7
			C2153.4,2678.1,2152.5,2683.6,2150.3,2688.7z"/>
		<path class="st19" d="M2072.2,2565.2c-0.7,0.1-1.3-1.6-1.9-4.8c0,0.8,0,1.5,0,2.3c13.9,46.4,26.7,87.2,35.5,114.7
			c6.2-11.9,11.7-26.3,8.6-34.5c-5.8-15.1-12.6-87.6-6.1-223.8c3.7-76.9-17.1-132.4-35.9-166.1
			C2074.6,2353.9,2075.6,2564.8,2072.2,2565.2z"/>
		<path class="st2" d="M1996,3449.9L1996,3449.9c-6.1-2.4-11.6-4.6-16.2-6.5c-56.8,19.9-130.5,6-157.9-0.5v113.8h310.6
			c3.4-12.2,4.8-29.2-7.6-40.2c-7.7-6.8-17.3-13.5-28.1-19.9c2.5,7.6-1.8,8.7-2.3,8.9c-4,2-9.2-2.7-12.1-8.6c-1.4-2.9,0-5.6,2.5-7.1
			c-6.2-3.4-12.7-6.7-19.2-9.9c-0.3,1.8-0.7,3.3-1.1,4.5c-0.6,1.7-1.2,2.8-1.7,3.5c-1.1,1.5-2.3,1.7-2.6,1.8c-1.7,0.8-3.8,0.5-6.6,0
			c-2.7-0.6-6.1-1.3-8.9-3.1c-1.6-0.9-1.9-3.2-0.7-5.9c1.2-2.7,4-5.5,7.4-7.2c0.1-0.1,0.2-0.1,0.4-0.1c-4.5-2.1-9-4.1-13.5-6
			c0,0.1-0.1,0.1-0.1,0.2c-1.3,1.9-3.1,3.2-4.9,4.5c-3.6,2.3-7.3,3.9-8.2,4.4c-5.1,2.9-9.5,5-13.6,6.1c-4.1,1.1-7.9,1.2-10.7-0.6
			c-1.5-1-1.1-4.4,1.4-8.7c2.4-4.3,7.2-9,12.8-12.2c1.2-0.7,2.5-1.3,3.8-1.9c-4.3-1.8-8.5-3.5-12.5-5.1
			C2002.8,3452.6,1999.3,3451.2,1996,3449.9L1996,3449.9z"/>
		<path class="st7" d="M1821.8,3556.8l0.3,26.3H2127c0,0,3-17.6,5.4-26.3H1821.8z"/>
		<path class="st18" d="M1979.8,3443.5c2.9-1,5.8-2.1,8.6-3.3c0.5-2.6,1-5.3,1.4-7.9c2.1-11.7,4.1-23.3,6.1-34.9
			c0.1-0.8,0.3-1.6,0.4-2.3c-2.6-25.3,19.9-234.2,22.7-261c19.3-184.4,33.5-288.2,36.5-286.1c2.7,1.8-31.1,330.4-48.6,478.6
			c14.7-102,24.4-202.1,33.6-298c4.9-51.2,10.9-101.2,15.5-149.6c0.5-1.5,0.9-2.9,1.4-4.3c7.8-114.6,11.5-220.2,13-311.9
			c0-0.8,0-1.5,0-2.3c-4.7-26.3-5.2-152.7-5.4-169.6c-0.6-67.1,0-118.2,1.1-150.5c-0.9-19.7-1.6-30.1-1.6-30.1l5.3-196.4
			c-83.8,3.5-186.7-9.3-233.4-18.2c-15.3-2.9-24.6-5.4-25.1-6.8c0-0.1-0.1-0.3-0.1-0.4c-36.1,49.5-71.5,135-71.5,279.8
			c0,97.3,7.7,257.1,18,427.7c1.2,20.1,2.5,40.4,3.7,60.7c0.6,10,1.3,20.1,1.9,30.1c6.4,100.5,13.5,201.7,20.1,293.4
			c8,109.9,15.3,206.2,20.5,271.5c4.3,55.5,7,88.6,7,88.6s4,1.2,10.9,2.8C1849.3,3449.4,1923,3463.4,1979.8,3443.5z M1794.9,2183.4
			c6.1-1.4,13-3.8,19.8-7.6c6.8-3.7,13.6-8.7,19.5-14.5c12-11.7,20.4-26.5,25.9-37.8c5.5-11.4,8.4-19.4,9.1-19.2
			c1.5,0.4-2.4,14.6-9.3,28.7c-3.5,7-7.7,14-11.7,19.2c-3.9,5.3-7.4,9-8.7,10.3c-8.1,8.5-16.9,14.5-25.1,18.3
			c-8.2,3.9-15.8,5.7-22,6.4c-12.4,1.2-18.7-1.4-18.3-2C1774.2,2184.5,1782.7,2186.2,1794.9,2183.4z M1812.1,2487.5
			c1.6-172.8,4.2-270.4,5.8-268.7c1.8,1.8-3.1,514.5-5.3,515.1C1809.4,2734.8,1811.9,2514.3,1812.1,2487.5z M1816.3,2787.7
			c-3.2,0.1-2.9-13.3-2.9-14.9c0-10.5,1.6-16.4,3.3-16.3C1818.6,2756.7,1818.5,2787.7,1816.3,2787.7z M1837.2,3297.7
			c-5.1-68-9.1-140.1-9.9-155.7c-5.6-100.7-8.6-179.6-9.7-233.1c-0.6-26.7-0.7-47.1-0.5-60.7c0.2-13.6,0.5-20.3,0.9-19.9
			c0.1,0.1,0.3,2.6,0.4,7.1c0.1,4.5,0.3,11.1,0.5,19.3c0.3,8.3,0.6,18.3,1,29.8c0.4,11.5,0.9,24.4,1.4,38.5
			c2.2,56.4,5.7,131.3,9.8,206.2c4.1,74.9,8.7,149.7,12.7,205.8c2.1,28,3.8,51.4,5,67.8c0.6,8.2,1.1,14.6,1.5,19.1
			c0.3,4.4,0.4,6.8,0.3,6.9c-0.4,0.2-1.1-3.7-2.1-10.6c-1-6.9-2.2-17-3.4-29.2C1842.5,3364.7,1839.8,3331.7,1837.2,3297.7z"/>
		<path class="st11" d="M2292.7,1451.2C2292.7,1451.2,2292.7,1451.3,2292.7,1451.2c0,0.1,0.1,0.2,0.1,0.2
			C2292.7,1451.3,2292.7,1451.2,2292.7,1451.2z"/>
		<path class="st11" d="M2306.9,1631c-5.7,12.8-11.2,26.6-16.4,40.9c1.2-2.7,2.1-4,2.5-3.8c0.5,0.3-2.2,10.5-6.1,24.6
			c4.1,20.7,9.4,45,14.5,58.3c16.2-13.3,38-31.7,65.8-56.5c4.1-3.6,8.3-7.4,12.6-11.3c-8.6-64.4-39.6-137.5-62.2-184.1
			C2329.9,1538.9,2327.2,1585.3,2306.9,1631z"/>
		<path class="st20" d="M2272.9,1723.6c0.8-2.6,1.5-5.1,2.3-7.5c-5,15.3-9.8,30.9-14.5,46.6c0.2,0.9,0.4,1.7,0.7,2.5
			C2264.6,1751,2271.8,1727.5,2272.9,1723.6z"/>
		<path class="st20" d="M2286.8,1692.7c-7.3,25.5-18.9,63.6-24.1,77.8c1.4,5.4,2.3,8.7,2.3,8.7s4.1-2.8,12.4-9.3
			c5.8-4.5,13.7-10.7,23.8-18.9C2296.2,1737.7,2290.8,1713.4,2286.8,1692.7z"/>
		<path class="st11" d="M2275.2,1716.1c6.9-22.4,12.2-37.6,15.3-44.2c5.3-14.3,10.8-28.1,16.4-40.9c20.2-45.7,23-92.1,10.6-131.9
			c-5.4-17.3-13.7-33.4-24.7-47.6c0-0.1-0.1-0.1-0.1-0.2c-21.1-27.2-51.9-47.7-91.4-57.1c0,0,0,0,0,0l0,0c0,0,0,76.9-11.6,104.3
			l-42.1-68.4l0,0c-2.9,1.3-6,2.4-9.3,3.3c0,0.2,0.1,0.5,0,0.7c-1.9,12.3-70.4,60.8-70.4,60.8s-42.4-102.4-37-127.2
			c-38.3,10-79.7,23.5-109.1,41l52.2-22.3l-61.1,195.7c16.4,8.8,33.7,21.7,22.4,32.6c-19.4,18.6-59.4,2.3-59.4,53.1
			c0,50.9-17.5,157.9-14.2,188.1c0.4,3.9,0.3,9.1-0.3,15.2c24.6-2.4,81.6-4.8,95.6,21.5c1.5,2.9,2.8,6,4,9.1
			c0.2,0.2,0.4,0.5,0.5,0.7c1,1.4,1.4,2.3,1.2,2.5c-0.1,0.1-0.3,0.1-0.5,0.1c0,0.1,0.1,0.1,0.1,0.2c11.5,13.3,11.7,22.2,4.2,22.7
			c7.6,8.4,3.3,23.3-1.8,22.4c8.5,12.9-10.6,18-20.6,7.1c-21.8-23.6-18.9-11.7-96.9-11.5c-4.2,18.5-8.3,36.2-10.9,49.5
			c46.7,8.9,149.6,21.8,233.4,18.2c51.3-2.2,95.4-10.4,115.1-29.5c3.4-3.3,6.1-6.9,8-10.9c22.5-48.3,43.8-130.5,67.9-210.7
			C2265.4,1747,2270.2,1731.4,2275.2,1716.1z"/>
		<path class="st20" d="M1871.5,1620.9c5.9-1.4,12.7-3,19.4-4.9c9-2.5,17.9-5.4,24.1-8.2c3.2-1.4,5.6-2.8,7.3-3.8
			c1.6-1.1,2.6-1.7,2.8-1.5c0.3,0.3,0.2,0.8-0.3,1.6c-0.5,0.7-1.2,2-2.5,3c-2.4,2.1-6.1,4.4-10.1,6.2c-7.9,3.7-16.8,6.1-18.7,6.6
			c-12.3,3.5-22.2,5-28.9,5.8c-4.4,0.5-7.5,0.5-9.1,0.2c-3,0.9-6.1,1.8-9.3,2.6c-5.7,100.1-0.1,201.5-2.9,222c-0.3,1.9-0.6,4-1,6.1
			l7.4,15.7c0,0,4.4-0.7,11.4-1.4c0.6-6.1,0.7-11.3,0.3-15.2c-3.4-30.3,14.2-137.3,14.2-188.1c0-50.8,40-34.5,59.4-53.1
			c11.3-10.9-6-23.7-22.4-32.6l-7.5,24.1C1905.4,1606.2,1894.2,1613,1871.5,1620.9z"/>
		<path class="st20" d="M1836.3,1995.5c2.6-13.3,6.7-31,10.9-49.5c-0.4,0-0.8,0-1.2,0c-7.1,0-15.7-1.1-24.8-4.3
			c-6.3,23.2-11.1,42.2-10.1,46.6c0,0.1,0,0.3,0.1,0.4C1811.7,1990.1,1821,1992.6,1836.3,1995.5z"/>
		<path class="st5" d="M2138.3,1433.4c3.3-0.9,6.4-2,9.3-3.3l35.5-69.8l3-28c-5-1.1-12-2.7-21.9-5c-19.5-4.4-24.8-17-25.8-26.9
			c-4.3-2.5-6.7-4.3-6.7-4.3l-61.3,26l-4.5,19.4l2-1.4C2068,1340.1,2137.8,1419.1,2138.3,1433.4z"/>
		<path class="st17" d="M2164.3,1327.3c9.9,2.3,16.9,3.8,21.9,5l1.7-15.3c-20.6-1.2-39.6-10.8-49.3-16.5
			C2139.4,1310.3,2144.7,1322.9,2164.3,1327.3z"/>
		<path class="st5" d="M2138.5,1300.4c9.7,5.8,28.7,15.3,49.3,16.5c29,1.7,61.1-13.3,74.8-79.3c5.5-26.3,7.3-50,6.1-70.9
			c-1.2-0.1-2.4-0.3-3.7-0.5c-1.9-0.3-3.6-0.4-5.1-0.3c-1.6,0-2.8,0.1-3.2,0.2c-11,1.1-16.7,4.4-18.1,2.9c-0.3-0.5,1.3-2.5,4.4-4.3
			c3.1-1.9,7.7-3.5,12.4-4c2.4-0.2,4.7-0.3,7,0c2.3,0.3,4.3,1,5.9,1.7c0,0,0.1,0,0.1,0c-0.6-8.4-1.8-16.3-3.3-23.8
			c-21.1,11.4-48.2,19-80.9,18.4c-24.7-0.4-41.6-6.3-53.1-13.9l-29.6,48.9c0,0-14.8-29.6-27.6-2c-11.3,24.3,9.5,32.3,22.9,44.4
			c-7.4,4.7-15.5-1.3-15.8,13.4c-0.2,8.3-5.7,11.5-10.6,12.7c2.4,27.1,4.1,44,0,61.7l0,0l61.3-26
			C2131.8,1296.1,2134.2,1297.9,2138.5,1300.4z M2197.6,1208.5c-3.4,0.8-6.8-1-7.7-4.1c-0.9-3.1,1.1-6.3,4.5-7.1
			c3.4-0.8,6.8,1,7.7,4.1C2202.9,1204.5,2200.9,1207.7,2197.6,1208.5z M2257.7,1202.7c-3.4,0.8-6.8-1-7.7-4.1
			c-0.9-3.1,1.1-6.3,4.5-7.1c3.4-0.8,6.8,1,7.7,4.1C2263.1,1198.7,2261.1,1201.9,2257.7,1202.7z M2248.5,1189.7
			c1.9-1.2,4.6-1.7,7.3-1.7c5.5-0.1,10.2,2.8,9.8,3.4c-0.5,1-2.5,0.5-4.6,0.2c-2.1-0.3-4.3-0.5-4.7-0.5c-3.1,0-5.5,0.3-7,0.8
			c-1.5,0.4-2.4,1-2.9,0.7C2246,1192.5,2246.6,1190.9,2248.5,1189.7z M2245.8,1231.9c-0.4-3.2-1.4-5.8-1.6-6.6
			c-2-5.7-4.3-10.7-6.4-14.9c-2-4-3.8-7.6-5.4-10.8c-2.9-5.8-4.4-9-3.9-9.1c0.3-0.1,2.9,3.7,6.5,9.7c3.5,6,8,14.1,11.2,22.8
			c0.8,2.2,1.5,4.5,1.9,6.8c0.4,2.3,0.8,4.7-0.1,7.3c-0.4,1.3-1.6,2.4-2.7,3c-1,0.5-1.9,0.9-2.9,1.3c-1.9,0.7-3.8,1.2-5.6,1.5
			c-7.1,1.2-11.8-0.4-11.7-0.7c0.1-0.5,2-0.3,5-0.5c2.9-0.2,6.8-0.8,10.6-2.2c1.7-0.8,4.1-1.6,4.6-2.6
			C2246,1235.3,2246,1233.4,2245.8,1231.9z M2238.3,1264.4c0.8,1.7-2.9,4.2-7.4,5.3c-4.4,1.3-9.4,1.2-10.4,1.1
			c-6.8-0.2-12-2.1-15-3.9c-3.1-1.9-4.2-3.6-3.7-4.5c0.5-0.9,9,2.7,18.1,2.9C2229,1266,2237.8,1263.2,2238.3,1264.4z M2205.3,1196.8
			c-0.2,0.6-7.9-0.9-15.5,0.5c-7.7,1.1-14.5,4.9-14.9,4.2c-0.6-0.9,2.1-3.2,5.5-4.8c3.4-1.6,7.3-2.4,8.2-2.5c5.5-1,9.9-0.5,12.7,0.3
			C2204.2,1195.4,2205.5,1196.3,2205.3,1196.8z M2165.8,1179.9c0.9-1.9,2.7-3.9,5.1-5.4c4.7-3.2,10.7-3.8,11.8-3.8
			c7.8-0.8,14,0.8,17.7,2.8c3.7,1.9,5,4,4.3,4.8c-0.2,0.5-2.6-0.5-6.4-1.3c-3.8-0.8-9-1.3-14.2-0.9c-5.1,0.4-9.9,1.8-13,3.9
			c-3.2,1.9-4.6,4-5.2,3.7C2165.1,1183.3,2164.9,1181.8,2165.8,1179.9z"/>
		<path class="st15" d="M2096.8,1087.3c19.8,5.4,38.4,48.7,38.4,48.7l-4.2,6.9c11.6,7.6,28.4,13.5,53.1,13.9
			c32.7,0.6,59.9-7,80.9-18.4c26.6-14.4,43.5-34.9,49.5-52.9c-48.4-18.8-69.9-39-141.2-43c-44.5-2.5-75.6,19.8-80.7,39.2
			c-0.4,1.5-0.5,3-0.3,4.4C2093.8,1086.5,2095.3,1086.9,2096.8,1087.3z"/>
		<path class="st15" d="M2081,1247.7c0.3-14.8,8.5-8.7,15.8-13.4c-13.4-12.1-34.2-20.1-22.9-44.4c12.8-27.5,27.6,2,27.6,2l29.6-48.9
			l4.2-6.9c0,0-18.7-43.4-38.4-48.7c-1.6-0.4-3-0.8-4.4-1.1c-16-3.7-19.4,0.8-29.3,32.4c-10.8,34.3,0,142.6,0,142.6s3.4,0.3,7.2-0.7
			C2075.2,1259.2,2080.8,1256,2081,1247.7z"/>
		<path class="st9" d="M2065,2390.8c0.1,16.9,0.7,143.3,5.4,169.6c0.6,3.1,1.2,4.9,1.9,4.8c3.4-0.4,2.4-211.3,0.1-312.1
			c-0.7-31.5-1.6-52.3-2.4-52.6c-1.5-0.5-2.8,13.3-3.8,39.9C2065,2272.6,2064.4,2323.7,2065,2390.8z"/>
		<path class="st9" d="M2006.9,3326.5c17.5-148.2,51.3-476.8,48.6-478.6c-3.1-2-17.2,101.7-36.5,286.1
			c-2.8,26.8-25.3,235.7-22.7,261C2000.1,3372.1,2003.6,3349.2,2006.9,3326.5z"/>
		<path class="st9" d="M2145.8,2647c-0.8,0.3,0.6,4,2,11.2c0.7,3.6,1.4,8,1.3,13.2c0,5.2-1,11.1-3.7,17.1c-0.5,0.9-1.7,3.5-3.9,6.5
			c-2.2,3-5.4,6.3-9,9.2c-7.1,5.7-15.2,9.4-14.5,10.9c0.2,0.4,5.3-0.9,12.3-4.8c3.5-2,7.4-4.6,11-8.2c3.6-3.6,6.8-8.2,8.9-13.3
			c2.2-5.1,3-10.6,3.1-15.7c0-5.1-0.8-9.8-1.9-13.7C2149.3,2651.5,2146.3,2646.9,2145.8,2647z"/>
		<path class="st9" d="M2114.3,2717.5c-0.1,0.2,0.5,0.6,1.6,1.1c1.4,0.6,3.5,1.5,6.1,2.7c4.6,2,10.5,5.2,15.9,9.1
			c5.4,3.9,10.2,8.5,13.5,12.3c3.3,3.7,5.3,6.5,5.8,6.3c0.7-0.3,0.1-3-2.4-7.3c-2.6-4.3-7.3-10.2-15.2-15.7c-1.2-0.9-6.8-4.8-12.9-7
			c-3.7-1.5-7.5-2.3-9.9-2.3C2115.3,2716.7,2114.4,2717,2114.3,2717.5z"/>
		<path class="st9" d="M1792.4,2187.2c6.1-0.7,13.8-2.4,22-6.4c8.2-3.9,17-9.8,25.1-18.3c1.3-1.3,4.8-5,8.7-10.3
			c4-5.3,8.2-12.2,11.7-19.2c7-14.1,10.8-28.3,9.3-28.7c-0.6-0.2-3.6,7.8-9.1,19.2c-5.5,11.3-14,26.1-25.9,37.8
			c-5.9,5.8-12.7,10.8-19.5,14.5c-6.8,3.8-13.7,6.2-19.8,7.6c-12.2,2.8-20.7,1.1-20.9,1.8
			C1773.7,2185.8,1779.9,2188.4,1792.4,2187.2z"/>
		<path class="st9" d="M1812.7,2733.9c2.2-0.6,7.1-513.3,5.3-515.1c-1.6-1.6-4.2,96-5.8,268.7
			C1811.9,2514.3,1809.4,2734.8,1812.7,2733.9z"/>
		<path class="st9" d="M1816.7,2756.6c-1.6-0.1-3.3,5.8-3.3,16.3c0,1.6-0.3,15,2.9,14.9C1818.5,2787.7,1818.6,2756.7,1816.7,2756.6z
			"/>
		<path class="st9" d="M1848.5,3418.2c1,6.9,1.7,10.8,2.1,10.6c0.1-0.1,0-2.4-0.3-6.9c-0.4-4.5-0.9-10.9-1.5-19.1
			c-1.2-16.4-2.9-39.8-5-67.8c-3.9-56.1-8.5-130.9-12.7-205.8c-4.1-74.9-7.6-149.8-9.8-206.2c-0.5-14.1-1-27-1.4-38.5
			c-0.4-11.5-0.7-21.5-1-29.8c-0.2-8.3-0.4-14.8-0.5-19.3c-0.2-4.5-0.3-7-0.4-7.1c-0.4-0.5-0.7,6.3-0.9,19.9
			c-0.2,13.6-0.1,34,0.5,60.7c1.1,53.5,4.1,132.4,9.7,233.1c0.9,15.6,4.9,87.7,9.9,155.7c2.6,34,5.3,67,7.9,91.3
			C1846.3,3401.2,1847.5,3411.2,1848.5,3418.2z"/>
		<path class="st3" d="M2002.3,3473.3c-2.5,4.3-2.9,7.7-1.4,8.7c2.8,1.8,6.6,1.7,10.7,0.6c4.1-1.1,8.5-3.2,13.6-6.1
			c0.8-0.5,4.6-2.2,8.2-4.4c1.8-1.2,3.5-2.5,4.9-4.5c0-0.1,0.1-0.1,0.1-0.2c1.3-1.8,2.2-4.2,2-7.3c-0.1-2.2-3.3-3.7-8.2-3.8
			c-3.8-0.1-8.6,0.9-13.1,2.9c-1.3,0.6-2.6,1.2-3.8,1.9C2009.5,3464.3,2004.7,3469,2002.3,3473.3z"/>
		<path class="st3" d="M2044.1,3480.7c-1.2,2.7-0.9,5,0.7,5.9c2.8,1.7,6.1,2.5,8.9,3.1c2.8,0.5,4.9,0.8,6.6,0
			c0.3-0.2,1.5-0.4,2.6-1.8c0.6-0.8,1.1-1.8,1.7-3.5c0.4-1.1,0.8-2.6,1.1-4.5c0.1-0.8,0.3-1.7,0.3-2.7c0.2-2.2-1.4-4-4.3-4.9
			c-2.7-0.8-6.5-0.5-9.9,1.1c-0.1,0.1-0.2,0.1-0.4,0.1C2048,3475.2,2045.2,3478,2044.1,3480.7z"/>
		<path class="st3" d="M2082.4,3496.9c2.9,5.9,8.1,10.6,12.1,8.6c0.5-0.3,4.8-1.3,2.3-8.9c-0.4-1.2-1-2.6-1.8-4.2
			c-2.2-4.4-7-4.5-10.1-2.6C2082.4,3491.3,2081,3494,2082.4,3496.9z"/>
		<path class="st21" d="M2068,1494.9c0,0,68.5-48.6,70.4-60.8c0-0.2,0-0.5,0-0.7c-0.6-14.3-70.4-93.3-70.4-93.3l-2,1.4l-34.8,24.8
			c-0.1,0.4-0.2,0.9-0.3,1.3C2025.6,1392.5,2068,1494.9,2068,1494.9z"/>
		<path class="st21" d="M2147.6,1430.1L2147.6,1430.1l42.1,68.4c11.6-27.4,11.6-104.3,11.6-104.3l0,0l-18.2-33.9l0,0L2147.6,1430.1z
			"/>
		<path class="st5" d="M1847.2,1946c78-0.1,75.1-12.1,96.9,11.5c10,10.9,29.1,5.8,20.6-7.1c5,0.9,9.3-14,1.8-22.4
			c7.6-0.5,7.3-9.4-4.2-22.7c0-0.1-0.1-0.1-0.1-0.2c-1.7-0.1-5.7-4.1-10.8-7.1c-5.6-3.6-12.2-6-13.7-6.4c-9.4-3-17.3-3.9-22.6-4.7
			c-5.3-0.7-8.2-1.2-8.2-2c0-0.5,3.9-1.2,9.8-1.2c5.8,0,13.7,0.8,21.2,3.1c7.5,2.3,14.6,6.3,18.9,10.4c1,1,2,2,2.9,2.8
			c0.5,0.6,1,1.2,1.4,1.8c-1.1-3.1-2.4-6.2-4-9.1c-14-26.4-71-23.9-95.6-21.5c-7,0.7-11.4,1.4-11.4,1.4l-7.4-15.7l-23.8-50.4l0,0
			l0-0.1c-2.5-4-81.6-131.8-88-162.3c-3.3-16,23-30.8,49.2-41.4c-16.1-42.7-24.7-85.4-28.3-106.6c-49,25.2-161.2,85.5-157.2,106.9
			c3.9,20.9,102.5,210.2,184.1,298.3c5.7,6.2,8.1,17.7,13.6,22.8c9.6,8.8,19.6,14.4,29.1,17.7c9.1,3.2,17.7,4.3,24.8,4.3
			C1846.4,1946,1846.8,1946,1847.2,1946z M1903.7,1902.8L1903.7,1902.8L1903.7,1902.8c2-2.3,19.5-2.7,34.7,4.2
			c8.2,3.5,15.7,8.4,20.7,12.8c5.1,4.2,8,7.6,7.7,8c-1.1,1.3-6.9-3.2-13.5-7.4c-6.5-4.2-13.8-7.8-15.4-8.5
			c-10.4-4.6-19.2-6.4-25.2-7.3c-2.5-0.3-4.8-0.7-6.9-0.9c-0.8-0.1-1.4-0.3-1.8-0.4L1903.7,1902.8L1903.7,1902.8L1903.7,1902.8
			c-0.1,0.3-0.2,0.5-0.2,0.6l0,0c0,0,0,0,0,0c0,0.1,0,0.1,0,0c0,0,0,0,0,0L1903.7,1902.8z M1911.6,1918.6c3.6-0.4,7.9-0.7,12.5-0.3
			c4.6,0.4,9.8,1.4,14.2,4.2c8.4,5.4,15,12.4,19.8,17.8c4.7,5.4,7.4,9.4,7,9.8c-1.2,1.1-6.9-4.7-13.1-10.5
			c-6.1-5.9-13.1-11.4-14.8-12.3c-4.9-3.4-10.2-4.3-14.9-4.8c-4.7-0.5-8.9-0.4-12.2-0.4c-6.7,0.1-10.3,0.3-10.4-0.6
			C1899.7,1921,1904.3,1919.5,1911.6,1918.6z"/>
		<path class="st17" d="M1789.2,1625.3c-3.4-7.5-6.5-15-9.3-22.6c-26.3,10.6-52.6,25.4-49.2,41.4c6.4,30.5,85.6,158.3,88,162.3
			l-79-167.1C1757.7,1633.2,1775.1,1628.5,1789.2,1625.3z"/>
		<path class="st17" d="M1956.7,1897.2c-4.4-4-11.4-8.1-18.9-10.4c-7.5-2.3-15.4-3.1-21.2-3.1c-5.9,0-9.8,0.7-9.8,1.2
			c0,0.8,2.9,1.3,8.2,2c5.3,0.8,13.2,1.7,22.6,4.7c1.5,0.4,8.1,2.9,13.7,6.4c5.1,3,9.1,7.1,10.8,7.1c0.2,0,0.4,0,0.5-0.1
			c0.2-0.2-0.2-1.1-1.2-2.5c-0.2-0.2-0.3-0.5-0.5-0.7c-0.4-0.6-0.8-1.1-1.4-1.8C1958.7,1899.1,1957.7,1898.2,1956.7,1897.2z"/>
		<polygon class="st17" points="1903.7,1902.7 1903.7,1902.8 1903.7,1902.7 		"/>
		<path class="st17" d="M1903.9,1903.1c0.4,0.2,1,0.3,1.8,0.4c2.1,0.3,4.4,0.6,6.9,0.9c6,0.9,14.8,2.6,25.2,7.3
			c1.6,0.7,8.9,4.3,15.4,8.5c6.5,4.2,12.4,8.7,13.5,7.4c0.3-0.4-2.6-3.7-7.7-8c-5-4.3-12.5-9.2-20.7-12.8
			c-15.2-6.8-32.7-6.5-34.7-4.2l0,0.1L1903.9,1903.1z"/>
		<polygon class="st17" points="1903.5,1903.3 1903.5,1903.3 1903.5,1903.3 		"/>
		<path class="st17" d="M1903.5,1903.3C1903.4,1903.5,1903.5,1903.5,1903.5,1903.3L1903.5,1903.3z"/>
		<path class="st17" d="M1903.5,1903.3c0-0.1,0.1-0.3,0.2-0.6L1903.5,1903.3z"/>
		<path class="st17" d="M1910.1,1922c3.3,0,7.5-0.1,12.2,0.4c4.7,0.6,10,1.4,14.9,4.8c1.6,0.9,8.6,6.4,14.8,12.3
			c6.2,5.8,11.9,11.6,13.1,10.5c0.4-0.4-2.3-4.4-7-9.8c-4.8-5.4-11.3-12.4-19.8-17.8c-4.4-2.8-9.6-3.8-14.2-4.2
			c-4.6-0.4-8.9-0.1-12.5,0.3c-7.3,0.9-11.9,2.4-11.9,2.9C1899.8,1922.3,1903.4,1922.2,1910.1,1922z"/>
		<path class="st11" d="M1789.2,1625.3c2.1,4.7,4.4,9.4,6.7,14.1c19.5-3,36.3-6.8,50.5-10.7c3.2-0.9,6.3-1.8,9.3-2.6
			c-0.8-0.1-1.3-0.3-1.3-0.6c0-0.6,7.2-2.2,17.1-4.5c22.7-8,33.8-14.7,33.8-14.7l7.5-24.1l61.1-195.7l-52.2,22.3l-172.4,73.7
			c0,0,0.7,5.1,2.1,13.7c3.6,21.2,12.2,63.9,28.3,106.6C1782.7,1610.2,1785.8,1617.8,1789.2,1625.3z"/>
		<path class="st9" d="M1864.8,1625.8c6.7-0.7,16.6-2.3,28.9-5.8c1.9-0.6,10.8-2.9,18.7-6.6c4-1.8,7.7-4.1,10.1-6.2
			c1.3-0.9,2-2.2,2.5-3c0.5-0.8,0.6-1.4,0.3-1.6c-0.2-0.2-1.3,0.4-2.8,1.5c-1.7,1-4.1,2.4-7.3,3.8c-6.3,2.8-15.1,5.7-24.1,8.2
			c-6.7,1.8-13.5,3.5-19.4,4.9c-9.9,2.3-17.1,3.9-17.1,4.5c0,0.3,0.5,0.5,1.3,0.6C1857.3,1626.3,1860.4,1626.3,1864.8,1625.8z"/>
		<path class="st9" d="M2286.8,1692.7c4-14.1,6.7-24.3,6.1-24.6c-0.4-0.2-1.2,1.1-2.5,3.8c-3,6.6-8.4,21.8-15.3,44.2
			c-0.7,2.4-1.5,4.9-2.3,7.5c-1.2,3.9-8.4,27.4-11.6,41.6c-1.4,6.2-2.1,10.7-1.1,10.9c0.3,0.1,1.2-2,2.5-5.6
			C2267.9,1756.3,2279.5,1718.2,2286.8,1692.7z"/>
		<path class="st9" d="M2240.8,1239.2c-3.7,1.4-7.6,2.1-10.6,2.2c-2.9,0.2-4.9,0.1-5,0.5c-0.1,0.3,4.6,1.9,11.7,0.7
			c1.8-0.3,3.6-0.8,5.6-1.5c1-0.3,1.9-0.8,2.9-1.3c1.1-0.6,2.3-1.7,2.7-3c0.9-2.5,0.5-4.9,0.1-7.3c-0.5-2.3-1.1-4.6-1.9-6.8
			c-3.2-8.8-7.7-16.8-11.2-22.8c-3.5-6-6.2-9.8-6.5-9.7c-0.5,0.2,1,3.3,3.9,9.1c1.6,3.2,3.4,6.8,5.4,10.8c2,4.3,4.4,9.2,6.4,14.9
			c0.3,0.9,1.2,3.4,1.6,6.6c0.2,1.6,0.2,3.5-0.4,4.7C2244.8,1237.6,2242.5,1238.4,2240.8,1239.2z"/>
		<path class="st9" d="M2166,1183.6c0.6,0.3,2-1.7,5.2-3.7c3.1-2,7.9-3.5,13-3.9c5.2-0.4,10.4,0.1,14.2,0.9c3.8,0.8,6.2,1.8,6.4,1.3
			c0.7-0.7-0.6-2.8-4.3-4.8c-3.7-1.9-9.9-3.6-17.7-2.8c-1.2,0.1-7.1,0.7-11.8,3.8c-2.4,1.5-4.3,3.6-5.1,5.4
			C2164.9,1181.8,2165.1,1183.3,2166,1183.6z"/>
		<path class="st9" d="M2262.4,1160.7c-2.4-0.3-4.7-0.2-7,0c-4.7,0.5-9.4,2.1-12.4,4c-3.1,1.9-4.7,3.9-4.4,4.3
			c1.4,1.5,7.1-1.8,18.1-2.9c0.4-0.1,1.6-0.1,3.2-0.2c1.5-0.1,3.3,0.1,5.1,0.3c1.3,0.2,2.6,0.4,3.7,0.5c2.1,0.2,3.9,0.2,4.4-0.9
			c0.3-0.6-1.5-2.1-4.7-3.5c0,0-0.1,0-0.1,0C2266.7,1161.6,2264.7,1161,2262.4,1160.7z"/>
		<path class="st9" d="M2254.5,1191.5c-3.4,0.8-5.3,4-4.5,7.1c0.9,3.1,4.3,5,7.7,4.1s5.3-4,4.5-7.1
			C2261.3,1192.5,2257.9,1190.6,2254.5,1191.5z"/>
		<path class="st9" d="M2202,1201.4c-0.9-3.1-4.3-5-7.7-4.1c-3.4,0.8-5.3,4-4.5,7.1c0.9,3.1,4.3,5,7.7,4.1
			C2200.9,1207.7,2202.9,1204.5,2202,1201.4z"/>
		<path class="st9" d="M2249.2,1192c1.5-0.4,3.9-0.8,7-0.8c0.5,0,2.7,0.1,4.7,0.5c2.1,0.3,4.1,0.8,4.6-0.2c0.4-0.7-4.3-3.6-9.8-3.4
			c-2.7,0-5.3,0.6-7.3,1.7c-1.9,1.2-2.5,2.8-2.3,2.9C2246.8,1193,2247.7,1192.4,2249.2,1192z"/>
		<path class="st9" d="M2188.6,1194.3c-0.8,0.1-4.8,0.9-8.2,2.5c-3.4,1.5-6.1,3.9-5.5,4.8c0.4,0.6,7.3-3.2,14.9-4.2
			c7.6-1.4,15.3,0.1,15.5-0.5c0.2-0.5-1.1-1.5-4-2.3C2198.5,1193.8,2194.1,1193.3,2188.6,1194.3z"/>
		<path class="st9" d="M2201.8,1262.5c-0.5,0.8,0.6,2.6,3.7,4.5c3.1,1.8,8.2,3.8,15,3.9c1,0.1,6,0.2,10.4-1.1
			c4.5-1.2,8.1-3.6,7.4-5.3c-0.5-1.2-9.3,1.6-18.4,0.9C2210.8,1265.1,2202.3,1261.5,2201.8,1262.5z"/>
		<path class="st3" d="M1104.6,2108.2c1,1.3,2.9,1.6,4.2,0.6c1.3-1,1.6-2.9,0.6-4.2l0,0c-3.6-4.9-7.3-9.7-10.9-14.6
			c-1-1.3-2.9-1.6-4.2-0.6c-1.3,1-1.6,2.9-0.6,4.2C1097.3,2098.5,1100.9,2103.4,1104.6,2108.2z"/>
		<path class="st3" d="M1218.1,1486.5c0-1.7-1.3-3.1-3-3.1c-1.7,0-3.5-0.1-5.2-0.1c-2.3,0-4.5,0-6.8,0.1c-4.8,0.1-9.5,0.5-14.2,0.9
			c0.2-1.3,0.3-2.7,0.5-4c0.2-1.7-0.9-3.2-2.6-3.4c-1.7-0.2-3.2,0.9-3.4,2.6c-0.3,1.8-0.5,3.7-0.7,5.5c-1.4,0.2-2.8,0.3-4.2,0.5
			c-1.7,0.2-2.8,1.7-2.6,3.4c0.2,1.7,1.7,2.8,3.4,2.6v0c0.9-0.1,1.8-0.2,2.7-0.3c-0.8,8.2-1.4,16.5-1.6,24.8c0,1.7,1.3,3.1,3,3.1
			c1.7,0,3.1-1.3,3.1-3c0.2-8.5,0.7-17.1,1.6-25.6c5-0.5,10.1-0.8,15.1-1c2.2-0.1,4.4-0.1,6.6-0.1c1.7,0,3.4,0,5.1,0.1
			C1216.7,1489.5,1218.1,1488.2,1218.1,1486.5z"/>
		<path class="st3" d="M1437.8,1721.1c1.6,0.3,3.2-0.7,3.6-2.3c1.9-9.1,2.8-18.4,2.8-27.7c0-3.1-0.1-6.1-0.3-9.2
			c-0.1-1.7-1.5-2.9-3.2-2.8c-1.7,0.1-2.9,1.5-2.8,3.2h0c0.2,2.9,0.3,5.9,0.3,8.8c0,8.9-0.8,17.8-2.7,26.4
			C1435.1,1719.2,1436.1,1720.8,1437.8,1721.1z"/>
		<path class="st3" d="M1460.1,1160.8c-0.7-1.5-2.5-2.2-4-1.5c-11,5.1-21.9,10.4-32.7,16.1c-1.5,0.8-2.1,2.6-1.3,4.1
			c0.8,1.5,2.6,2.1,4.1,1.3h0c10.7-5.6,21.5-10.9,32.4-16C1460.2,1164.1,1460.8,1162.3,1460.1,1160.8z"/>
		<path class="st3" d="M1395.9,1194.5c-0.9-1.4-2.7-1.9-4.2-1c-10.4,6.3-20.5,13-30.5,20.1c-1.4,1-1.7,2.9-0.7,4.2
			c1,1.4,2.9,1.7,4.2,0.7v0c9.8-7,19.9-13.6,30.1-19.8C1396.3,1197.7,1396.7,1195.9,1395.9,1194.5z"/>
		<path class="st3" d="M1402.3,1780.5c10.1-7.2,18.8-16.6,25.4-27.2c0.9-1.4,0.5-3.3-1-4.2c-1.4-0.9-3.3-0.5-4.2,1v0
			c-6.2,9.9-14.4,18.7-23.8,25.5c-1.4,1-1.7,2.9-0.7,4.2C1399,1781.2,1400.9,1781.5,1402.3,1780.5z"/>
		<path class="st3" d="M1435.6,1649.3c1.6-0.4,2.6-2.1,2.1-3.7c-3.3-11.9-7.7-23.4-13.2-34.3c-0.7-1.5-2.6-2.1-4.1-1.4
			c-1.5,0.7-2.1,2.6-1.4,4.1c5.3,10.6,9.6,21.7,12.8,33.3C1432.3,1648.8,1434,1649.7,1435.6,1649.3z"/>
		<path class="st3" d="M1196.5,1445.1L1196.5,1445.1c3-11.6,6.7-23,11-34.2c0.6-1.6-0.2-3.3-1.7-3.9c-1.6-0.6-3.3,0.2-3.9,1.7
			c-4.4,11.4-8.1,23-11.2,34.8c-0.4,1.6,0.5,3.3,2.2,3.7C1194.4,1447.7,1196.1,1446.7,1196.5,1445.1z"/>
		<path class="st3" d="M1187.8,1552c-0.2-1.7-1.6-2.9-3.3-2.7c-1.7,0.2-2.9,1.6-2.7,3.3c1.1,12.2,2.9,24.2,5.4,36.2
			c0.3,1.6,1.9,2.7,3.6,2.4c1.6-0.3,2.7-1.9,2.4-3.6v0C1190.6,1575.8,1188.9,1563.9,1187.8,1552z"/>
		<path class="st3" d="M1202.2,1622.2c-0.5-1.6-2.2-2.5-3.8-2c-1.6,0.5-2.5,2.2-2,3.8c3.7,11.6,8.1,23,13.1,34.2
			c0.7,1.5,2.5,2.2,4,1.5c1.5-0.7,2.2-2.5,1.5-4l0,0C1210.2,1644.9,1205.9,1633.7,1202.2,1622.2z"/>
		<path class="st3" d="M1222.1,1378.1L1222.1,1378.1c5.4-10.7,11.4-21.1,17.8-31.2c0.9-1.4,0.5-3.3-0.9-4.2
			c-1.4-0.9-3.3-0.5-4.2,0.9c-6.5,10.3-12.6,20.9-18.1,31.7c-0.8,1.5-0.2,3.3,1.3,4.1C1219.5,1380.2,1221.3,1379.6,1222.1,1378.1z"
			/>
		<path class="st3" d="M1594.6,1116.2c1.6-0.4,2.6-2.1,2.1-3.7c-0.4-1.6-2.1-2.6-3.7-2.1c-11.7,3.2-23.3,6.6-34.9,10.2
			c-1.6,0.5-2.5,2.2-2,3.8c0.5,1.6,2.2,2.5,3.8,2v0C1571.4,1122.8,1583,1119.4,1594.6,1116.2z"/>
		<path class="st3" d="M1663.6,1092.8c-11.8,2.7-23.6,5.5-35.4,8.4c-1.6,0.4-2.6,2-2.2,3.7c0.4,1.6,2,2.6,3.7,2.2
			c11.7-2.9,23.5-5.7,35.2-8.3c1.6-0.4,2.7-2,2.3-3.6C1666.8,1093.4,1665.2,1092.4,1663.6,1092.8z"/>
		<path class="st3" d="M1700.3,1091c11.8-2.5,23.7-4.9,35.5-7.2c1.6-0.3,2.7-1.9,2.4-3.6c-0.3-1.6-1.9-2.7-3.6-2.4
			c-11.9,2.4-23.7,4.8-35.6,7.2c-1.6,0.3-2.7,2-2.3,3.6C1697,1090.3,1698.7,1091.3,1700.3,1091z"/>
		<path class="st3" d="M1330.6,1791c8.5,2.9,17.4,4.6,26.6,4.6c1.7,0,3.3-0.1,5-0.2c1.9-0.1,3.7-0.3,5.6-0.6
			c1.7-0.2,2.8-1.8,2.6-3.4c-0.2-1.7-1.8-2.8-3.4-2.6l0,0c-1.7,0.2-3.4,0.4-5.1,0.5c-1.5,0.1-3.1,0.2-4.6,0.2
			c-8.4,0-16.7-1.5-24.7-4.2c-1.6-0.5-3.3,0.3-3.8,1.9C1328.2,1788.7,1329,1790.4,1330.6,1791z"/>
		<path class="st3" d="M1525.6,1137.8c1.6-0.6,2.4-2.3,1.8-3.9c-0.6-1.6-2.3-2.4-3.9-1.8c-11.4,4-22.8,8.3-34.1,12.8
			c-1.6,0.6-2.3,2.4-1.7,3.9c0.6,1.6,2.4,2.3,3.9,1.7v0C1503,1146.1,1514.3,1141.8,1525.6,1137.8z"/>
		<path class="st3" d="M1336.5,1236c-1.1-1.3-3-1.5-4.3-0.4c-9.4,7.7-18.6,15.7-27.4,24.1c-1.2,1.1-1.3,3.1-0.1,4.3
			c1.1,1.2,3.1,1.3,4.3,0.1v0c8.7-8.2,17.8-16.2,27.1-23.8C1337.3,1239.2,1337.5,1237.3,1336.5,1236z"/>
		<path class="st3" d="M1318.3,1515.7c10.7,5.4,21,11.5,30.7,18.4c1.4,1,3.3,0.6,4.2-0.7c1-1.4,0.6-3.3-0.7-4.2
			c-10-7-20.5-13.3-31.5-18.8c-1.5-0.8-3.3-0.2-4.1,1.3C1316.2,1513.1,1316.8,1514.9,1318.3,1515.7z"/>
		<path class="st3" d="M1400.4,1583.6c1,1.3,2.9,1.6,4.2,0.6c1.3-1,1.6-2.9,0.6-4.2c-7.3-9.8-15.5-19-24.3-27.5
			c-1.2-1.2-3.1-1.1-4.3,0.1c-1.2,1.2-1.1,3.1,0.1,4.3C1385.3,1565.1,1393.3,1574,1400.4,1583.6z"/>
		<path class="st3" d="M950.1,1806.9c1.7-0.3,2.8-1.8,2.5-3.5c-1.8-11.9-3-23.8-3.5-35.8c-0.1-1.7-1.5-3-3.2-2.9
			c-1.7,0.1-3,1.5-2.9,3.2c0.5,12.2,1.7,24.3,3.6,36.4C946.9,1806,948.5,1807.1,950.1,1806.9z"/>
		<path class="st3" d="M961.2,1663.8c1.6,0.6,3.3-0.2,3.9-1.8v0c4.2-11.2,9.3-22,15-32.5c0.8-1.5,0.3-3.3-1.2-4.1
			c-1.5-0.8-3.3-0.3-4.1,1.2c-5.9,10.7-11.1,21.8-15.4,33.3C958.8,1661.4,959.6,1663.2,961.2,1663.8z"/>
		<path class="st3" d="M953.9,1840.2c3,11.8,6.5,23.5,10.5,35c0.5,1.6,2.3,2.4,3.9,1.9c1.6-0.5,2.4-2.3,1.9-3.9h0
			c-3.9-11.4-7.4-22.9-10.3-34.5c-0.4-1.6-2.1-2.6-3.7-2.2C954.5,1836.9,953.5,1838.6,953.9,1840.2z"/>
		<path class="st3" d="M946.5,1734.6c1.7,0.1,3.1-1.1,3.3-2.8h0c0.9-11.8,2.6-23.5,5.1-35.1l0.1-0.4c0.4-1.6-0.7-3.3-2.3-3.6
			c-1.6-0.4-3.3,0.7-3.6,2.3l-0.1,0.4c-2.5,11.9-4.2,23.9-5.2,35.9C943.6,1733,944.8,1734.5,946.5,1734.6z"/>
		<path class="st3" d="M1035.5,2001.5c-6.6-10.1-13-20.3-19.1-30.7c-0.9-1.4-2.7-1.9-4.2-1.1c-1.4,0.9-1.9,2.7-1.1,4.2
			c6.2,10.4,12.6,20.7,19.2,30.9c0.9,1.4,2.8,1.8,4.2,0.9C1036,2004.8,1036.4,2002.9,1035.5,2001.5L1035.5,2001.5z"/>
		<path class="st3" d="M1055.8,2031.5c-1-1.4-2.9-1.7-4.2-0.7c-1.4,1-1.7,2.9-0.7,4.2c6.9,9.9,14,19.8,21.2,29.5
			c1,1.4,2.9,1.6,4.2,0.7c1.4-1,1.6-2.9,0.7-4.2l0,0C1069.7,2051.2,1062.7,2041.4,1055.8,2031.5z"/>
		<path class="st3" d="M1049.3,1548L1049.3,1548c9.4-7.5,19.2-14.3,29.4-20.5c1.4-0.9,1.9-2.7,1-4.2c-0.9-1.4-2.7-1.9-4.2-1
			c-10.4,6.3-20.5,13.4-30,21c-1.3,1-1.5,3-0.5,4.3C1046.1,1548.8,1048,1549,1049.3,1548z"/>
		<path class="st3" d="M999.5,1599.4c7.1-9.6,14.9-18.7,23.2-27.3c1.2-1.2,1.1-3.1-0.1-4.3c-1.2-1.2-3.1-1.1-4.3,0.1
			c-8.5,8.8-16.5,18.1-23.7,27.9c-1,1.3-0.7,3.2,0.6,4.2C996.6,1601,998.5,1600.7,999.5,1599.4z"/>
		<path class="st3" d="M1260.6,1317.4L1260.6,1317.4c7.3-9.5,15-18.7,23.1-27.6c1.1-1.2,1-3.2-0.2-4.3c-1.2-1.1-3.2-1-4.3,0.2
			c-8.2,9-16,18.4-23.4,28c-1,1.3-0.8,3.2,0.6,4.3C1257.6,1319,1259.5,1318.7,1260.6,1317.4z"/>
		<path class="st3" d="M1289.1,1500c0.5-1.6-0.3-3.3-1.9-3.8c-11.6-3.9-23.5-6.9-35.5-9.1c-1.6-0.3-3.2,0.8-3.5,2.5
			c-0.3,1.6,0.8,3.2,2.5,3.5h0c11.7,2.1,23.3,5.1,34.7,8.9C1286.9,1502.4,1288.6,1501.6,1289.1,1500z"/>
		<path class="st3" d="M1273.9,1752.6c7.4,7.4,15.4,14.6,24,20.9c1.4,1,3.2,0.7,4.2-0.7c1-1.4,0.7-3.3-0.7-4.2
			c-8.3-6.1-16.1-13-23.3-20.2c-1.1-1.1-2.3-2.3-3.4-3.5c-1.2-1.2-3.1-1.2-4.3-0.1c-1.2,1.2-1.2,3.1-0.1,4.3
			C1271.6,1750.2,1272.7,1751.4,1273.9,1752.6z"/>
		<path class="st3" d="M1110.5,1510.9L1110.5,1510.9c11-4.8,22.2-8.9,33.7-12.1c1.6-0.5,2.5-2.1,2.1-3.7c-0.5-1.6-2.1-2.5-3.7-2.1
			c-11.8,3.3-23.3,7.5-34.5,12.4c-1.5,0.7-2.2,2.5-1.6,4C1107.2,1510.8,1109,1511.5,1110.5,1510.9z"/>
		<path class="st3" d="M1246.7,1721.2c1,1.3,2.9,1.6,4.2,0.6c1.3-1,1.6-2.9,0.6-4.2l0,0c-7.2-9.6-13.9-19.5-20-29.8
			c-0.9-1.4-2.7-1.9-4.2-1.1c-1.4,0.9-1.9,2.7-1.1,4.2C1232.5,1701.3,1239.3,1711.5,1246.7,1721.2z"/>
		<path class="st3" d="M979.3,1905.2c-1.5,0.7-2.2,2.5-1.6,4c1.2,2.9,2.5,5.7,3.8,8.5c3.8,8.2,7.8,16.4,11.9,24.4
			c0.8,1.5,2.6,2.1,4.1,1.3c1.5-0.8,2.1-2.6,1.3-4.1h0c-4.1-7.9-8.1-16-11.8-24.1c-1.3-2.8-2.5-5.6-3.8-8.4
			C982.6,1905.2,980.8,1904.5,979.3,1905.2z"/>
		<path class="st3" d="M1792.2,1069.8c-0.3-1.6-1.9-2.7-3.5-2.4c-6,1.1-11.9,2.3-17.9,3.4c-1.6,0.3-2.7,1.9-2.4,3.6
			c0.3,1.6,1.9,2.7,3.6,2.4l0,0c6-1.1,11.9-2.3,17.9-3.4C1791.4,1073,1792.5,1071.4,1792.2,1069.8z"/>
		<polygon class="st17" points="1818.7,1806.4 1818.7,1806.5 1818.7,1806.4 		"/>
		<path class="st19" d="M2055.9,2878.9c-4.6,48.4-10.6,98.4-15.5,149.6c-9.1,95.8-18.9,196-33.6,298c-3.3,22.8-6.8,45.6-10.6,68.5
			c-0.1,0.8-0.3,1.6-0.4,2.3c-1.9,11.6-4,23.3-6.1,34.9c-0.2,1.3-0.5,2.7-0.7,4l6.9,13.6l0,0v0c0,0,4.1-22.5,9.2-48
			c6.5-32.7,14.5-70.5,17.2-72c4.9-2.7,31.2-214.9,45.6-295.6c14.4-80.7,13.4-230,13.4-230c-7.2,19.9-15.3,43.3-24,70.3
			C2056.8,2876.1,2056.4,2877.5,2055.9,2878.9z"/>
	</g>
	<line class="st22" x1="879.9" y1="3583.1" x2="4996.4" y2="3583.1"/>
</g>
</svg>
