<svg xmlns="http://www.w3.org/2000/svg" viewBox="0 0 1440 320">
            <path fill="#ececec"
                  fill-opacity="1"
                  d="M0,0L48,26.7C96,53,192,107,288,122.7C384,139,480,
                     117,576,90.7C672,64,768,32,864,58.7C960,85,1056,
                     171,1152,186.7C1248,203,1344,149,1392,122.7L1440,
                     96L1440,320L1392,320C1344,320,1248,320,1152,320C1056,
                     320,960,320,864,320C768,320,672,320,576,320C480,320,
                     384,320,288,320C192,320,96,320,48,320L0,320Z">
            </path>
        </svg>